<svg xmlns="http://www.w3.org/2000/svg" xmlns:xlink="http://www.w3.org/1999/xlink" width="445.71435546875" height="80" viewBox="0 0 445.71435546875 80" fill="none">
<path d="M58.504 70.7695C58.4096 70.7053 58.3106 70.6492 58.207 70.6011C58.1037 70.5527 57.9971 70.5129 57.8874 70.4818C57.7776 70.4506 57.666 70.4283 57.5526 70.4148C57.4394 70.4012 57.3257 70.3969 57.2116 70.4017C56.9997 70.401 56.79 70.4228 56.5826 70.467C56.3865 70.5048 56.2032 70.5759 56.0327 70.6801C55.9539 70.7301 55.8821 70.7887 55.8175 70.8561C55.7531 70.9237 55.6977 70.9979 55.6512 71.0788C55.6001 71.1748 55.5623 71.2759 55.5377 71.382C55.5132 71.4881 55.5029 71.5955 55.5068 71.7044C55.5045 71.7562 55.5073 71.8076 55.515 71.8587C55.5228 71.9098 55.5357 71.9598 55.5535 72.0086C55.5712 72.0572 55.5934 72.1036 55.6202 72.1478C55.647 72.192 55.678 72.2333 55.713 72.2715C55.7921 72.3478 55.8782 72.415 55.9715 72.4729C56.0648 72.5309 56.1631 72.5783 56.2664 72.6152C56.521 72.7142 56.7822 72.791 57.0501 72.8455C57.3422 72.904 57.6378 72.9727 57.9403 73.0414C58.2428 73.1102 58.5384 73.1961 58.8306 73.2923C59.111 73.3831 59.3722 73.5126 59.6142 73.6807C59.7283 73.7619 59.8321 73.8547 59.9256 73.9592C60.0191 74.0634 60.0998 74.1769 60.1676 74.2994C60.204 74.3769 60.2358 74.4563 60.2628 74.5376C60.2898 74.6187 60.3121 74.7014 60.3295 74.7854C60.3467 74.8693 60.3589 74.9539 60.3663 75.0391C60.3736 75.1244 60.3758 75.2098 60.3728 75.2955C60.3701 75.381 60.3623 75.4661 60.3494 75.5509C60.3364 75.6355 60.3185 75.7191 60.2958 75.8018C60.2729 75.8843 60.2453 75.9652 60.213 76.0445C60.1806 76.1238 60.1438 76.2009 60.1023 76.2758C60.0157 76.4177 59.9144 76.548 59.7984 76.6669C59.6825 76.7859 59.5546 76.8904 59.4149 76.9804C59.1202 77.1663 58.8028 77.2969 58.4627 77.3723C58.1181 77.4541 57.7687 77.4953 57.4144 77.496C57.0038 77.4978 56.6005 77.444 56.2045 77.3344C56.0233 77.2866 55.8482 77.2218 55.6793 77.1403C55.5107 77.0587 55.3512 76.9619 55.2009 76.8498C55.0552 76.741 54.9242 76.6166 54.808 76.4765C54.6916 76.3365 54.5934 76.1849 54.5135 76.0215C54.4255 75.834 54.3603 75.639 54.3179 75.4364C54.2755 75.2337 54.257 75.0288 54.2625 74.8219L55.2215 74.8219C55.2176 74.9649 55.2314 75.1063 55.2628 75.246C55.2942 75.3856 55.3423 75.5192 55.4071 75.6468C55.4665 75.7593 55.5376 75.8637 55.6206 75.9599C55.7035 76.0562 55.7962 76.142 55.8986 76.2174C56.1131 76.3764 56.3491 76.491 56.6067 76.5611C56.8794 76.6331 57.1566 76.6686 57.4385 76.6676C57.6697 76.6679 57.8988 76.6461 58.1259 76.6023C58.3454 76.565 58.5528 76.4928 58.748 76.3858C58.7971 76.3595 58.8441 76.3298 58.889 76.2968C58.9339 76.2636 58.9762 76.2275 59.0158 76.1885C59.0557 76.1493 59.0924 76.1076 59.1261 76.0634C59.16 76.0192 59.1906 75.9728 59.2179 75.9242C59.2452 75.8756 59.2689 75.8253 59.2891 75.7733C59.3092 75.7213 59.3255 75.6681 59.3379 75.6138C59.3505 75.5595 59.3592 75.5046 59.364 75.4492C59.3688 75.3937 59.3697 75.3381 59.3667 75.2825C59.3693 75.2252 59.3666 75.1681 59.3588 75.1113C59.3513 75.0545 59.3387 74.9988 59.321 74.9442C59.3034 74.8897 59.281 74.8371 59.254 74.7865C59.2272 74.7358 59.196 74.6881 59.1605 74.6432C59.0833 74.5572 58.9977 74.4807 58.9038 74.4135C58.8098 74.3462 58.7098 74.2898 58.6037 74.2444C58.3509 74.1347 58.0897 74.0511 57.82 73.9935L56.9332 73.7976C56.6307 73.7289 56.3317 73.6498 56.043 73.5604C55.766 73.4819 55.5047 73.3673 55.2593 73.2167C55.1459 73.1462 55.0424 73.0632 54.9489 72.9679C54.8552 72.8728 54.7742 72.7678 54.7059 72.653C54.6315 72.5206 54.5765 72.3805 54.541 72.2327C54.5052 72.0851 54.4903 71.9354 54.4963 71.7834C54.4926 71.6102 54.5106 71.4391 54.5502 71.2703C54.5899 71.1016 54.6498 70.9404 54.73 70.7867C54.8068 70.6499 54.898 70.5234 55.0036 70.4072C55.1092 70.2913 55.2266 70.1886 55.3556 70.0992C55.4896 70.0062 55.6309 69.9255 55.7794 69.8573C55.9276 69.7892 56.0808 69.7347 56.2389 69.6936C56.5767 69.6024 56.9204 69.5578 57.2701 69.5596C57.6385 69.5568 58.0006 69.6038 58.3562 69.7005C58.5164 69.7422 58.6705 69.7999 58.8185 69.8734C58.9668 69.947 59.106 70.0348 59.2361 70.137C59.3628 70.2376 59.4767 70.3512 59.5778 70.4777C59.6786 70.6041 59.7641 70.7404 59.8342 70.8863C59.9107 71.0566 59.9689 71.2329 60.0088 71.4153C60.0489 71.5977 60.0698 71.7823 60.0714 71.9691L59.1124 71.9691C59.1108 71.9111 59.106 71.8534 59.098 71.7962C59.0899 71.7386 59.0787 71.6818 59.0642 71.6257C59.05 71.5695 59.0328 71.5143 59.0123 71.46C58.992 71.4059 58.9687 71.353 58.9426 71.3012C58.9162 71.2494 58.8872 71.1994 58.8556 71.151C58.8238 71.1024 58.7894 71.0558 58.7525 71.0111C58.7156 70.9664 58.6764 70.9239 58.635 70.8836C58.5935 70.843 58.5498 70.805 58.504 70.7695Z"   fill="#003F9B" >
</path>
<path d="M64.275 69.7383L64.275 72.6462L64.2956 72.6462C64.3643 72.4814 64.464 72.3382 64.5946 72.2165C64.7243 72.0981 64.8687 72.0018 65.0277 71.9278C65.187 71.8522 65.3531 71.7972 65.5261 71.7628C65.6941 71.7291 65.8636 71.712 66.0348 71.7113C66.1888 71.7065 66.3419 71.7164 66.494 71.7412C66.6462 71.7662 66.7944 71.8055 66.9388 71.8591C67.052 71.9038 67.1583 71.9613 67.2578 72.0316C67.3572 72.1017 67.4468 72.1829 67.5265 72.275C67.6021 72.3671 67.6663 72.4665 67.719 72.5733C67.7719 72.6801 67.8121 72.7915 67.8393 72.9074C67.9026 73.1753 67.9324 73.4468 67.9287 73.722L67.9287 77.3448L67.0247 77.3448L67.0247 73.612C67.0286 73.538 67.0249 73.4645 67.0137 73.3914C67.0025 73.318 66.984 73.2467 66.9584 73.1772C66.9327 73.1078 66.9003 73.0417 66.8611 72.9789C66.8219 72.9161 66.7768 72.8579 66.7257 72.8043C66.6709 72.7527 66.6116 72.7072 66.5476 72.6678C66.4837 72.6284 66.4164 72.5959 66.3459 72.5702C66.2751 72.5446 66.2025 72.5262 66.1283 72.5152C66.0538 72.5042 65.9791 72.5009 65.9042 72.5053C65.7814 72.5023 65.6595 72.5114 65.5385 72.5328C65.4177 72.5543 65.3002 72.5875 65.1858 72.6324C65.0884 72.6723 64.997 72.7231 64.9115 72.7847C64.8261 72.8461 64.7491 72.9168 64.6806 72.9968C64.6118 73.0763 64.5519 73.1621 64.5008 73.2542C64.4499 73.3463 64.409 73.4427 64.3781 73.5433C64.3071 73.7669 64.2727 73.9961 64.275 74.2307L64.275 77.3413L63.371 77.3413L63.371 69.7383L64.275 69.7383Z"   fill="#003F9B" >
</path>
<path d="M76.0919 77.3207C75.9915 77.3716 75.8863 77.4087 75.776 77.4321C75.6661 77.4555 75.5548 77.4642 75.4423 77.4582C75.3914 77.461 75.3408 77.4587 75.2904 77.4513C75.2402 77.4442 75.191 77.4322 75.1429 77.4152C75.0948 77.3985 75.0489 77.3773 75.0051 77.3517C74.9611 77.3257 74.9201 77.296 74.882 77.2623C74.844 77.2185 74.8108 77.1713 74.7824 77.1207C74.7539 77.0701 74.7309 77.0171 74.7132 76.9619C74.6954 76.9066 74.6833 76.8503 74.6772 76.7928C74.6708 76.735 74.6703 76.6773 74.6758 76.6195C74.5599 76.7612 74.4282 76.8864 74.2809 76.9952C74.1338 77.1038 73.9755 77.1929 73.8062 77.2623C73.6353 77.3287 73.4596 77.3785 73.2793 77.4115C73.0989 77.4442 72.9171 77.4598 72.7338 77.4582C72.4943 77.4593 72.2583 77.4318 72.0257 77.3757C71.8152 77.323 71.6215 77.2337 71.4449 77.1076C71.3619 77.0453 71.2877 76.974 71.2221 76.8938C71.1564 76.8136 71.1012 76.7268 71.0565 76.6333C71.0054 76.5224 70.9677 76.4071 70.9434 76.2875C70.9191 76.1679 70.9087 76.0471 70.9121 75.9252C70.9073 75.7928 70.9185 75.6617 70.9458 75.532C70.9731 75.4023 71.0157 75.2779 71.0737 75.1588C71.1238 75.063 71.1843 74.9741 71.2551 74.892C71.3259 74.8102 71.4052 74.7376 71.493 74.6741C71.6758 74.5453 71.8752 74.4514 72.0911 74.3923C72.3145 74.327 72.5448 74.2754 72.7785 74.2307C73.0122 74.186 73.2631 74.1448 73.4865 74.1207C73.6859 74.098 73.883 74.0625 74.0777 74.0142C74.1522 73.9963 74.2237 73.9703 74.2922 73.9361C74.3607 73.902 74.4244 73.8604 74.4833 73.8114C74.509 73.7864 74.5317 73.7589 74.5514 73.7289C74.5711 73.6989 74.5872 73.667 74.5998 73.6333C74.6127 73.5999 74.6217 73.5654 74.627 73.5299C74.6323 73.4944 74.6336 73.4587 74.6311 73.423C74.6348 73.3393 74.6272 73.2566 74.6084 73.1748C74.5899 73.0932 74.5608 73.0156 74.5211 72.9418C74.4861 72.884 74.444 72.8318 74.395 72.785C74.3459 72.7385 74.2918 72.6991 74.2324 72.6668C74.1089 72.5983 73.9771 72.5547 73.8371 72.5362C73.6946 72.5158 73.5514 72.5055 73.4075 72.5052C73.2409 72.4991 73.0764 72.5144 72.9139 72.5513C72.7514 72.588 72.5963 72.6448 72.4485 72.7218C72.4146 72.744 72.3824 72.7684 72.3519 72.795C72.3212 72.8214 72.2925 72.8498 72.2657 72.8802C72.2386 72.9105 72.2138 72.9423 72.1911 72.9758C72.1684 73.0093 72.148 73.0441 72.1299 73.0803C72.1116 73.1165 72.0957 73.1537 72.0825 73.192C72.0692 73.2303 72.0584 73.2692 72.0502 73.3089C72.0421 73.3485 72.0366 73.3885 72.0337 73.4288C72.0307 73.4694 72.0303 73.5098 72.0326 73.5501L71.1252 73.5501C71.1273 73.4001 71.1463 73.2522 71.1823 73.1064C71.2182 72.9609 71.2703 72.8212 71.3383 72.6874C71.3995 72.5731 71.4734 72.4677 71.56 72.3712C71.6466 72.2747 71.7434 72.1899 71.8504 72.1169C71.9614 72.0415 72.0785 71.9772 72.2017 71.924C72.3248 71.8709 72.4517 71.8297 72.5826 71.8006C72.8713 71.7367 73.1635 71.7058 73.459 71.7078C73.7077 71.7078 73.9551 71.725 74.2015 71.7594C74.4361 71.7899 74.6572 71.862 74.8648 71.9759C74.9643 72.0305 75.0548 72.097 75.1364 72.1756C75.2182 72.2545 75.2881 72.3426 75.3461 72.4399C75.4113 72.5586 75.4595 72.684 75.4904 72.816C75.5213 72.9477 75.5339 73.0813 75.5282 73.2167L75.5282 76.0455C75.5232 76.2025 75.5346 76.3583 75.5626 76.513C75.5901 76.6127 75.6726 76.6608 75.8135 76.6608C75.9079 76.6585 76.0007 76.6447 76.0919 76.6195L76.0919 77.3207ZM74.6208 74.4988C74.4847 74.5916 74.3358 74.6535 74.174 74.6844C73.9884 74.7222 73.7959 74.7532 73.5931 74.7772L72.9813 74.8631C72.7897 74.8895 72.6053 74.9411 72.4279 75.0178C72.3491 75.0501 72.2755 75.0918 72.2072 75.1429C72.1392 75.1943 72.0787 75.2534 72.0257 75.3203C71.9983 75.359 71.9742 75.3998 71.9536 75.4427C71.9329 75.4853 71.916 75.5295 71.9027 75.5753C71.8896 75.6209 71.8804 75.6673 71.8749 75.7145C71.8696 75.7617 71.8683 75.8091 71.8711 75.8565C71.869 75.922 71.8759 75.9866 71.8917 76.0503C71.9073 76.1138 71.9313 76.1741 71.9639 76.2311C72.0219 76.3333 72.0998 76.417 72.1976 76.4821C72.3042 76.548 72.4187 76.5939 72.5413 76.6195C72.674 76.6477 72.8081 76.6615 72.9435 76.6608C73.2072 76.6665 73.4639 76.6264 73.7134 76.5405C73.9061 76.4704 74.0791 76.3673 74.2324 76.2311C74.3619 76.1191 74.4615 75.985 74.5314 75.829C74.5931 75.6995 74.6252 75.5632 74.6277 75.42L74.6208 74.4988Z"   fill="#003F9B" >
</path>
<path d="M79.7044 71.835L79.7044 72.708L79.7422 72.708C79.7635 72.6684 79.7863 72.6294 79.8106 72.5911C79.8347 72.5531 79.8601 72.5159 79.8869 72.4794C79.9137 72.4432 79.9418 72.4079 79.9711 72.3736C80.0005 72.3392 80.0309 72.306 80.0626 72.2739C80.0942 72.2416 80.127 72.2105 80.1609 72.1807C80.1948 72.151 80.2297 72.1224 80.2657 72.0952C80.3014 72.0677 80.3382 72.0415 80.376 72.0168C80.4138 71.9921 80.4524 71.9687 80.4919 71.9467C80.5313 71.9247 80.5714 71.9041 80.6122 71.8848C80.653 71.8658 80.6944 71.8481 80.7366 71.8319C80.7788 71.8156 80.8214 71.8009 80.8644 71.7879C80.9078 71.7746 80.9514 71.7629 80.9954 71.7528C81.0394 71.7427 81.0836 71.7343 81.1281 71.7274C81.1728 71.7203 81.2176 71.7149 81.2625 71.7112C81.3074 71.7076 81.3524 71.7054 81.3976 71.7047C81.4427 71.7042 81.4878 71.7053 81.533 71.7078C81.687 71.703 81.84 71.7129 81.9922 71.7377C82.1443 71.7627 82.2926 71.802 82.437 71.8556C82.5504 71.8998 82.6568 71.9571 82.7563 72.0275C82.8557 72.0978 82.9452 72.1791 83.0247 72.2715C83.101 72.3631 83.1655 72.4624 83.2182 72.5691C83.2711 72.6762 83.3109 72.7878 83.3375 72.9039C83.4019 73.1716 83.4328 73.4431 83.4303 73.7185L83.4303 77.3413L82.492 77.3413L82.492 73.612C82.4958 73.538 82.4922 73.4644 82.4809 73.3913C82.4697 73.318 82.4513 73.2466 82.4256 73.1772C82.3999 73.1077 82.3675 73.0416 82.3283 72.9789C82.2892 72.9161 82.244 72.8579 82.1929 72.8042C82.1384 72.7529 82.0793 72.7076 82.0156 72.6681C81.9519 72.6287 81.8848 72.5962 81.8145 72.5705C81.7444 72.5449 81.6722 72.5265 81.5979 72.5155C81.5239 72.5045 81.4496 72.5011 81.3749 72.5052C81.2516 72.502 81.1291 72.5112 81.0074 72.5327C80.886 72.554 80.7679 72.5872 80.6531 72.6324C80.5557 72.6723 80.4642 72.723 80.3788 72.7847C80.2933 72.8461 80.2163 72.9168 80.1478 72.9967C80.0791 73.0762 80.0191 73.1621 79.968 73.2542C79.9172 73.3463 79.8763 73.4426 79.8453 73.5432C79.7743 73.7669 79.7399 73.996 79.7422 74.2307L79.7422 77.3413L78.8382 77.3413L78.8382 71.8418L79.7044 71.835Z"   fill="#003F9B" >
</path>
<path d="M90.8271 78.8984C90.4146 79.3452 89.7684 79.5686 88.8885 79.5686C88.6241 79.5682 88.3629 79.5395 88.1048 79.4827C87.848 79.4309 87.6062 79.3392 87.3796 79.2077C87.2726 79.1451 87.1738 79.0715 87.0833 78.9867C86.993 78.9021 86.9131 78.8085 86.8434 78.7059C86.7689 78.5938 86.7118 78.4734 86.6719 78.3446C86.6322 78.2161 86.6115 78.0844 86.6097 77.9497L87.5136 77.9497C87.5148 78.0258 87.5287 78.0996 87.5552 78.1711C87.5818 78.2423 87.6195 78.3072 87.6683 78.3656C87.765 78.4806 87.8796 78.5734 88.012 78.644C88.1566 78.7146 88.3079 78.765 88.4657 78.7952C88.6211 78.8276 88.7781 78.8436 88.9366 78.8434C89.0668 78.847 89.1957 78.8361 89.3233 78.8107C89.451 78.7853 89.5741 78.7457 89.6928 78.6921C89.7932 78.6422 89.8863 78.5811 89.9722 78.5089C90.0582 78.437 90.1346 78.356 90.2015 78.2659C90.2728 78.1679 90.3333 78.0635 90.383 77.9528C90.4327 77.8424 90.4708 77.7279 90.4971 77.6094C90.5585 77.3322 90.5883 77.0515 90.5865 76.7673L90.5865 76.4236L90.5658 76.4236C90.5308 76.5043 90.489 76.5812 90.4404 76.6542C90.3921 76.7276 90.3377 76.7962 90.2775 76.8601C90.217 76.924 90.1516 76.9823 90.0812 77.0347C90.0106 77.0872 89.9361 77.1333 89.8578 77.1729C89.702 77.2526 89.5389 77.3129 89.3687 77.3537C89.1984 77.3942 89.0258 77.4142 88.8507 77.4135C88.6653 77.4176 88.4818 77.4008 88.3001 77.363C88.1184 77.3254 87.9433 77.2678 87.7749 77.1901C87.6264 77.1186 87.4873 77.0321 87.3576 76.9306C87.2279 76.8293 87.1104 76.7153 87.005 76.5886C86.9002 76.4571 86.8091 76.3167 86.7317 76.1675C86.654 76.0184 86.5916 75.8631 86.5444 75.7018C86.4394 75.3533 86.3879 74.997 86.3897 74.6329C86.3906 74.2919 86.433 73.9562 86.5169 73.6258C86.5579 73.4573 86.6143 73.2943 86.686 73.1367C86.7577 72.9788 86.8434 72.829 86.9431 72.6874C87.0462 72.5442 87.1642 72.4145 87.2971 72.2983C87.43 72.1822 87.5744 72.0827 87.7302 72C87.9163 71.9037 88.1115 71.8327 88.3159 71.7869C88.5203 71.7408 88.7272 71.7213 88.9366 71.7284C89.1032 71.7268 89.2676 71.7453 89.4299 71.7838C89.5921 71.8221 89.7474 71.8792 89.8956 71.9553C89.9685 71.9936 90.0381 72.0372 90.1046 72.0863C90.1708 72.1351 90.2331 72.1886 90.2915 72.2468C90.3498 72.3052 90.4033 72.3675 90.4521 72.4337C90.5011 72.5002 90.5448 72.5699 90.583 72.6427L90.583 71.835L91.4354 71.835L91.4354 76.8739C91.4458 77.7744 91.2396 78.4515 90.8271 78.8984ZM89.6722 76.4202C89.7746 76.3601 89.8686 76.2889 89.954 76.2064C90.0393 76.1239 90.1137 76.0324 90.1774 75.9321C90.3101 75.7188 90.4041 75.4896 90.4593 75.2447C90.521 74.9917 90.5519 74.735 90.5521 74.4747C90.5512 74.2341 90.5226 73.997 90.4662 73.7632C90.4116 73.5359 90.3211 73.324 90.1946 73.1274C90.1328 73.0343 90.0609 72.9497 89.9791 72.8734C89.8971 72.7973 89.8074 72.7319 89.71 72.6771C89.5986 72.6173 89.4815 72.5727 89.3587 72.5434C89.2357 72.5143 89.111 72.5016 88.9848 72.5052C88.8555 72.5016 88.7278 72.5136 88.6015 72.5413C88.4753 72.5693 88.3544 72.6123 88.2389 72.6702C88.1383 72.7229 88.0453 72.7868 87.9598 72.8617C87.8743 72.9366 87.7989 73.0206 87.7336 73.1136C87.5955 73.3077 87.4992 73.5208 87.4449 73.7529C87.383 74.0011 87.3532 74.2532 87.3555 74.5091C87.3558 74.76 87.3798 75.0086 87.4277 75.255C87.4749 75.4988 87.5609 75.7279 87.6855 75.9424C87.7444 76.0416 87.8143 76.1325 87.8952 76.215C87.9758 76.2975 88.0652 76.3693 88.1633 76.4305C88.2762 76.4963 88.3962 76.5449 88.5231 76.5766C88.6499 76.608 88.7785 76.6211 88.9091 76.6161C89.0427 76.6186 89.1744 76.6033 89.3041 76.57C89.4335 76.5366 89.5562 76.4866 89.6722 76.4202Z"   fill="#003F9B" >
</path>
<path d="M95.6322 69.7383L95.6322 72.6462L95.6563 72.6462C95.6891 72.5646 95.7303 72.4875 95.78 72.4149C95.83 72.3425 95.8873 72.2763 95.9519 72.2165C96.0816 72.0981 96.2259 72.0018 96.385 71.9278C96.5454 71.8515 96.7126 71.7965 96.8868 71.7628C97.0536 71.7289 97.222 71.7117 97.3921 71.7113C97.546 71.7065 97.6991 71.7164 97.8513 71.7412C98.0034 71.7662 98.1517 71.8055 98.296 71.8591C98.4095 71.9033 98.5159 71.9606 98.6153 72.0309C98.7148 72.1013 98.8043 72.1826 98.8838 72.275C98.9601 72.3666 99.0246 72.4658 99.0773 72.5726C99.1302 72.6796 99.17 72.7912 99.1966 72.9074C99.2609 73.175 99.2919 73.4466 99.2894 73.722L99.2894 77.3448L98.382 77.3448L98.382 73.612C98.3858 73.538 98.3822 73.4645 98.371 73.3914C98.3597 73.318 98.3413 73.2467 98.3156 73.1772C98.2899 73.1078 98.2575 73.0417 98.2184 72.9789C98.1792 72.9161 98.134 72.8579 98.0829 72.8043C98.0284 72.753 97.9693 72.7076 97.9056 72.6682C97.8419 72.6288 97.7748 72.5962 97.7045 72.5706C97.6344 72.5449 97.5622 72.5266 97.488 72.5156C97.4139 72.5046 97.3396 72.5011 97.2649 72.5053C97.1416 72.5021 97.0191 72.5112 96.8975 72.5328C96.776 72.5541 96.6579 72.5873 96.5431 72.6324C96.4457 72.6723 96.3543 72.7231 96.2688 72.7847C96.1833 72.8461 96.1063 72.9168 96.0378 72.9968C95.9691 73.0763 95.9091 73.1621 95.858 73.2542C95.8072 73.3463 95.7663 73.4427 95.7353 73.5433C95.6643 73.7669 95.6299 73.9961 95.6322 74.2307L95.6322 77.3413L94.7283 77.3413L94.7283 69.7383L95.6322 69.7383Z"   fill="#003F9B" >
</path>
<path d="M107.449 77.3207C107.349 77.372 107.244 77.4094 107.134 77.4328C107.023 77.4561 106.912 77.4646 106.8 77.4582C106.749 77.4607 106.698 77.4583 106.648 77.451C106.598 77.4436 106.548 77.4316 106.5 77.4149C106.452 77.3979 106.406 77.3768 106.362 77.3513C106.319 77.3256 106.278 77.296 106.239 77.2623C106.201 77.2185 106.168 77.1713 106.14 77.1207C106.111 77.0701 106.088 77.0171 106.071 76.9619C106.053 76.9066 106.041 76.8503 106.034 76.7928C106.028 76.735 106.028 76.6773 106.033 76.6195C105.917 76.7614 105.786 76.8867 105.639 76.9956C105.492 77.1044 105.333 77.1933 105.163 77.2623C104.993 77.3285 104.818 77.3781 104.638 77.4111C104.459 77.4441 104.277 77.4598 104.095 77.4582C103.855 77.4596 103.619 77.4321 103.386 77.3757C103.175 77.3246 102.982 77.2352 102.806 77.1076C102.722 77.0462 102.647 76.9754 102.581 76.8952C102.515 76.8148 102.461 76.7275 102.417 76.6333C102.366 76.5224 102.328 76.4071 102.304 76.2875C102.28 76.1679 102.269 76.0471 102.273 75.9252C102.267 75.793 102.278 75.6621 102.305 75.5324C102.332 75.4026 102.374 75.2781 102.431 75.1588C102.481 75.0623 102.542 74.9731 102.613 74.8913C102.685 74.8095 102.765 74.7371 102.854 74.6741C103.035 74.5446 103.233 74.4507 103.448 74.3923C103.672 74.327 103.902 74.2754 104.136 74.2307C104.37 74.186 104.62 74.1448 104.844 74.1207C105.043 74.0985 105.24 74.063 105.435 74.0142C105.51 73.9963 105.581 73.9703 105.65 73.9361C105.718 73.902 105.782 73.8604 105.841 73.8114C105.867 73.7864 105.889 73.7589 105.909 73.7289C105.929 73.6989 105.946 73.6671 105.959 73.6337C105.972 73.6002 105.981 73.5657 105.987 73.5302C105.992 73.4947 105.994 73.4589 105.992 73.423C105.996 73.3391 105.988 73.2563 105.969 73.1745C105.95 73.0927 105.919 73.0151 105.878 72.9418C105.843 72.884 105.801 72.8318 105.752 72.785C105.703 72.7385 105.649 72.6991 105.59 72.6668C105.467 72.5987 105.337 72.5552 105.198 72.5362C105.054 72.5158 104.91 72.5055 104.765 72.5052C104.598 72.4991 104.434 72.5144 104.271 72.5513C104.109 72.588 103.954 72.6448 103.806 72.7218C103.772 72.7442 103.74 72.7688 103.71 72.7953C103.679 72.8219 103.65 72.8503 103.623 72.8806C103.596 72.9108 103.572 72.9427 103.549 72.9761C103.526 73.0098 103.506 73.0447 103.488 73.0806C103.47 73.1168 103.454 73.1541 103.441 73.1923C103.428 73.2306 103.417 73.2696 103.408 73.3092C103.4 73.3486 103.394 73.3886 103.391 73.4292C103.388 73.4695 103.388 73.5098 103.39 73.5501L102.486 73.5501C102.487 73.4001 102.506 73.252 102.542 73.1061C102.578 72.9603 102.63 72.8208 102.699 72.6874C102.759 72.5729 102.832 72.4673 102.918 72.3709C103.004 72.2742 103.101 72.1895 103.208 72.1169C103.319 72.0417 103.436 71.9774 103.559 71.924C103.682 71.8709 103.809 71.8297 103.94 71.8006C104.23 71.7367 104.523 71.7058 104.82 71.7078C105.067 71.7078 105.314 71.725 105.559 71.7594C105.794 71.7906 106.017 71.8627 106.226 71.9759C106.325 72.0305 106.415 72.0971 106.496 72.176C106.577 72.2546 106.646 72.3426 106.703 72.4399C106.769 72.5586 106.817 72.684 106.848 72.816C106.879 72.9477 106.891 73.0813 106.886 73.2167L106.886 76.0455C106.881 76.2027 106.894 76.3585 106.923 76.513C106.947 76.6127 107.03 76.6608 107.174 76.6608C107.267 76.6582 107.359 76.6445 107.449 76.6195L107.449 77.3207ZM105.978 74.4988C105.842 74.5916 105.693 74.6535 105.531 74.6844C105.346 74.7222 105.153 74.7532 104.95 74.7772L104.339 74.8631C104.147 74.8895 103.963 74.9411 103.785 75.0178C103.707 75.0501 103.634 75.0919 103.566 75.1433C103.499 75.1944 103.439 75.2534 103.386 75.3203C103.359 75.359 103.335 75.3998 103.314 75.4427C103.294 75.4853 103.277 75.5295 103.263 75.5753C103.25 75.6209 103.241 75.6673 103.236 75.7145C103.23 75.7617 103.229 75.8091 103.232 75.8565C103.229 75.9218 103.236 75.9863 103.251 76.05C103.266 76.1137 103.289 76.1741 103.321 76.2311C103.38 76.3324 103.458 76.4161 103.555 76.4821C103.662 76.5474 103.776 76.5932 103.899 76.6195C104.032 76.6477 104.168 76.6615 104.304 76.6608C104.567 76.666 104.822 76.6259 105.071 76.5405C105.264 76.4694 105.438 76.3663 105.593 76.2311C105.72 76.1175 105.82 75.9834 105.892 75.829C105.952 75.6991 105.982 75.5627 105.985 75.42L105.978 74.4988Z"   fill="#003F9B" >
</path>
<path d="M110.264 70.8417L110.264 69.7383L111.168 69.7383L111.168 70.8451L110.264 70.8417ZM111.168 71.835L111.168 77.3345L110.264 77.3345L110.264 71.835L111.168 71.835Z"   fill="#003F9B" >
</path>
<path d="M120.205 69.7383L120.205 77.3448L119.194 77.3448L119.194 69.7383L120.205 69.7383Z"   fill="#003F9B" >
</path>
<path d="M124.532 71.8349L124.532 72.708L124.553 72.708C124.574 72.6681 124.597 72.6292 124.621 72.5911C124.645 72.5528 124.67 72.5156 124.697 72.4794C124.724 72.443 124.752 72.4076 124.781 72.3732C124.81 72.3388 124.841 72.3056 124.873 72.2735C124.904 72.2412 124.937 72.2102 124.971 72.1804C125.005 72.1506 125.04 72.1219 125.076 72.0945C125.111 72.0672 125.148 72.0412 125.186 72.0164C125.224 71.9917 125.262 71.9683 125.302 71.9463C125.341 71.9241 125.381 71.9035 125.422 71.8844C125.463 71.8652 125.504 71.8475 125.547 71.8315C125.589 71.8152 125.631 71.8005 125.675 71.7872C125.718 71.7741 125.761 71.7625 125.805 71.7524C125.849 71.7424 125.894 71.7339 125.938 71.727C125.983 71.7201 126.028 71.7148 126.073 71.7109C126.118 71.7072 126.163 71.7051 126.208 71.7047C126.253 71.704 126.298 71.705 126.343 71.7078C126.497 71.703 126.65 71.7129 126.802 71.7377C126.955 71.7626 127.103 71.8019 127.247 71.8556C127.36 71.9002 127.467 71.9578 127.566 72.0281C127.666 72.0982 127.755 72.1794 127.835 72.2715C127.911 72.3636 127.975 72.463 128.027 72.5698C128.08 72.6766 128.121 72.788 128.148 72.9039C128.211 73.1718 128.241 73.4433 128.237 73.7185L128.237 77.3413L127.333 77.3413L127.333 73.612C127.337 73.5379 127.333 73.4644 127.322 73.3913C127.311 73.318 127.293 73.2466 127.267 73.1772C127.241 73.1077 127.209 73.0416 127.17 72.9788C127.13 72.916 127.085 72.8578 127.034 72.8042C126.979 72.7527 126.92 72.7072 126.856 72.6678C126.792 72.6284 126.725 72.5958 126.654 72.5702C126.584 72.5445 126.511 72.5262 126.437 72.5152C126.362 72.5042 126.288 72.5008 126.213 72.5052C126.09 72.5022 125.968 72.5114 125.847 72.5327C125.726 72.5542 125.609 72.5875 125.494 72.6324C125.397 72.6722 125.305 72.723 125.22 72.7846C125.135 72.846 125.058 72.9167 124.989 72.9967C124.92 73.0762 124.86 73.162 124.809 73.2542C124.758 73.3463 124.718 73.4426 124.687 73.5432C124.616 73.7669 124.581 73.996 124.583 74.2307L124.583 77.3413L123.679 77.3413L123.679 71.8418L124.532 71.8349Z"   fill="#003F9B" >
</path>
<path d="M132.372 71.8351L132.372 72.7081L132.393 72.7081C132.414 72.6685 132.437 72.6295 132.461 72.5913C132.485 72.5532 132.511 72.5161 132.538 72.4799C132.565 72.4437 132.593 72.4084 132.622 72.374C132.651 72.3397 132.682 72.3064 132.713 72.2744C132.745 72.2423 132.778 72.2113 132.812 72.1816C132.846 72.1515 132.88 72.1229 132.916 72.0956C132.952 72.0684 132.989 72.0424 133.027 72.0176C133.065 71.9929 133.103 71.9695 133.143 71.9475C133.182 71.9255 133.222 71.9049 133.263 71.8856C133.304 71.8666 133.345 71.849 133.387 71.8327C133.43 71.8164 133.472 71.8016 133.515 71.7883C133.558 71.7753 133.602 71.7637 133.646 71.7536C133.69 71.7433 133.734 71.7347 133.779 71.7278C133.823 71.7207 133.868 71.7154 133.913 71.7117C133.958 71.7078 134.003 71.7055 134.048 71.7048C134.093 71.7044 134.138 71.7054 134.183 71.7079C134.338 71.7031 134.492 71.7132 134.644 71.7382C134.797 71.7629 134.946 71.8021 135.091 71.8557C135.204 71.8999 135.31 71.9572 135.409 72.0276C135.508 72.0979 135.596 72.1793 135.675 72.2716C135.752 72.3633 135.817 72.4625 135.87 72.5693C135.924 72.676 135.964 72.7876 135.991 72.904C136.053 73.1721 136.083 73.4437 136.081 73.7187L136.081 77.3414L135.177 77.3414L135.177 73.6121C135.181 73.5381 135.177 73.4645 135.166 73.3914C135.155 73.3181 135.136 73.2467 135.11 73.1773C135.085 73.1079 135.052 73.0418 135.013 72.979C134.974 72.9162 134.929 72.858 134.878 72.8044C134.823 72.753 134.764 72.7077 134.7 72.6683C134.636 72.6288 134.568 72.5963 134.498 72.5706C134.427 72.545 134.355 72.5266 134.28 72.5156C134.206 72.5047 134.131 72.5012 134.056 72.5053C133.933 72.5021 133.812 72.5113 133.691 72.5328C133.57 72.5541 133.452 72.5874 133.338 72.6325C133.241 72.6724 133.149 72.7231 133.064 72.7848C132.978 72.8462 132.901 72.9169 132.833 72.9968C132.763 73.0764 132.703 73.1622 132.651 73.2543C132.6 73.3464 132.558 73.4428 132.527 73.5434C132.459 73.7675 132.425 73.9966 132.427 74.2308L132.427 77.3414L131.52 77.3414L131.52 71.842L132.372 71.8351Z"   fill="#003F9B" >
</path>
<path d="M139.236 73.4575C139.289 73.2893 139.358 73.1281 139.443 72.9738C139.529 72.8199 139.629 72.6763 139.745 72.5432C139.861 72.4116 139.99 72.2943 140.133 72.1912C140.274 72.0881 140.426 72.0015 140.587 71.9314C140.679 71.8945 140.772 71.862 140.866 71.8341C140.961 71.8061 141.057 71.7828 141.154 71.764C141.251 71.7454 141.348 71.7313 141.447 71.7217C141.545 71.7123 141.643 71.7076 141.742 71.7076C141.841 71.7076 141.939 71.7123 142.037 71.7217C142.135 71.7313 142.233 71.7454 142.33 71.764C142.427 71.7828 142.523 71.8061 142.617 71.8341C142.712 71.862 142.805 71.8945 142.897 71.9314C143.057 72.0012 143.207 72.0879 143.348 72.1912C143.489 72.2943 143.617 72.4116 143.732 72.5432C143.848 72.6763 143.949 72.8199 144.035 72.9738C144.121 73.1278 144.191 73.289 144.244 73.4575C144.36 73.8278 144.416 74.207 144.412 74.5952C144.416 74.9799 144.36 75.3557 144.244 75.7225C144.191 75.8903 144.121 76.0508 144.035 76.2041C143.948 76.3576 143.847 76.5007 143.732 76.6334C143.617 76.7649 143.49 76.882 143.349 76.9847C143.208 77.0873 143.057 77.173 142.897 77.2418C142.805 77.2775 142.712 77.3089 142.617 77.336C142.522 77.363 142.426 77.3856 142.329 77.4037C142.233 77.422 142.135 77.4357 142.037 77.4449C141.939 77.4538 141.84 77.4583 141.742 77.4583C141.643 77.4583 141.545 77.4538 141.447 77.4449C141.349 77.4357 141.251 77.422 141.154 77.4037C141.057 77.3856 140.962 77.363 140.867 77.336C140.772 77.3089 140.679 77.2775 140.587 77.2418C140.426 77.173 140.274 77.0873 140.132 76.9847C139.99 76.882 139.861 76.7649 139.745 76.6334C139.63 76.5005 139.529 76.3574 139.444 76.2041C139.358 76.0506 139.289 75.89 139.236 75.7225C139.119 75.3559 139.061 74.9801 139.064 74.5952C139.062 74.207 139.119 73.8278 139.236 73.4575ZM140.157 75.4819C140.195 75.6018 140.245 75.7165 140.307 75.826C140.369 75.9355 140.442 76.0374 140.525 76.1316C140.6 76.2177 140.684 76.2947 140.776 76.3625C140.868 76.4304 140.967 76.4874 141.072 76.5337C141.124 76.5564 141.178 76.5763 141.232 76.5935C141.287 76.6107 141.342 76.625 141.398 76.6365C141.454 76.6482 141.51 76.6569 141.567 76.6626C141.624 76.6684 141.681 76.6712 141.738 76.6712C141.796 76.6712 141.853 76.6684 141.91 76.6626C141.966 76.6569 142.023 76.6482 142.079 76.6365C142.135 76.625 142.19 76.6107 142.245 76.5935C142.299 76.5763 142.353 76.5564 142.405 76.5337C142.51 76.487 142.609 76.4298 142.702 76.3622C142.794 76.2944 142.879 76.2175 142.955 76.1316C143.038 76.0372 143.11 75.9352 143.171 75.8257C143.233 75.7164 143.282 75.6018 143.319 75.4819C143.364 75.338 143.397 75.1916 143.42 75.0427C143.442 74.8937 143.454 74.744 143.454 74.5934C143.454 74.4429 143.442 74.2931 143.42 74.1442C143.397 73.9953 143.364 73.8488 143.319 73.7049C143.281 73.5844 143.231 73.4689 143.17 73.3585C143.109 73.248 143.037 73.1447 142.955 73.0484C142.879 72.9616 142.795 72.8839 142.702 72.8154C142.61 72.7471 142.511 72.6896 142.405 72.6428C142.353 72.6202 142.299 72.6002 142.245 72.583C142.19 72.5658 142.135 72.5515 142.079 72.5401C142.023 72.5284 141.966 72.5197 141.91 72.514C141.853 72.5082 141.796 72.5054 141.738 72.5054C141.681 72.5054 141.624 72.5082 141.567 72.514C141.51 72.5197 141.454 72.5284 141.398 72.5401C141.342 72.5515 141.287 72.5658 141.232 72.583C141.178 72.6002 141.124 72.6202 141.072 72.6428C140.966 72.6891 140.868 72.7465 140.776 72.815C140.683 72.8836 140.6 72.9614 140.525 73.0484C140.442 73.1444 140.37 73.2477 140.308 73.3581C140.246 73.4688 140.196 73.5844 140.157 73.7049C140.113 73.8488 140.079 73.9953 140.057 74.1442C140.034 74.2931 140.023 74.4429 140.023 74.5934C140.023 74.744 140.034 74.8937 140.057 75.0427C140.079 75.1916 140.113 75.338 140.157 75.4819Z"   fill="#003F9B" >
</path>
<path d="M148.908 77.3413L146.846 71.8419L147.877 71.8419L149.42 76.4339L149.441 76.4339L150.943 71.8419L151.892 71.8419L149.878 77.3413L148.908 77.3413Z"   fill="#003F9B" >
</path>
<path d="M159.522 77.3207C159.422 77.3716 159.317 77.4087 159.206 77.4321C159.096 77.4555 158.985 77.4642 158.873 77.4582C158.822 77.4608 158.771 77.4585 158.721 77.4513C158.671 77.4443 158.621 77.4322 158.573 77.4152C158.525 77.3985 158.479 77.3773 158.435 77.3517C158.391 77.3258 158.35 77.296 158.312 77.2623C158.274 77.2178 158.241 77.1701 158.213 77.119C158.184 77.0679 158.161 77.0144 158.144 76.9584C158.127 76.9026 158.115 76.8455 158.109 76.7873C158.103 76.7291 158.103 76.6709 158.11 76.6127C157.994 76.7543 157.862 76.8795 157.715 76.9883C157.568 77.097 157.409 77.186 157.24 77.2554C157.069 77.3219 156.893 77.3716 156.713 77.4046C156.533 77.4374 156.351 77.4529 156.168 77.4513C155.928 77.4525 155.692 77.425 155.46 77.3688C155.249 77.3161 155.055 77.2268 154.879 77.1007C154.796 77.0384 154.721 76.9672 154.656 76.887C154.59 76.8068 154.535 76.7199 154.49 76.6264C154.437 76.5174 154.397 76.4036 154.369 76.2851C154.342 76.1667 154.328 76.0467 154.329 75.9252C154.324 75.7928 154.335 75.6617 154.362 75.532C154.39 75.4023 154.432 75.2779 154.49 75.1587C154.54 75.063 154.601 74.9741 154.672 74.892C154.743 74.8102 154.822 74.7376 154.91 74.6741C155.092 74.5453 155.292 74.4514 155.508 74.3923C155.731 74.327 155.961 74.2754 156.195 74.2307C156.429 74.186 156.68 74.1448 156.903 74.1207C157.103 74.0981 157.3 74.0625 157.494 74.0142C157.569 73.9963 157.64 73.9703 157.709 73.9362C157.777 73.902 157.841 73.8604 157.9 73.8114C157.926 73.7864 157.948 73.7589 157.968 73.7289C157.988 73.6989 158.004 73.667 158.016 73.6333C158.029 73.5999 158.038 73.5654 158.044 73.5299C158.049 73.4944 158.05 73.4587 158.048 73.423C158.051 73.3393 158.044 73.2566 158.025 73.1748C158.006 73.0933 157.977 73.0156 157.938 72.9418C157.903 72.884 157.861 72.8318 157.812 72.785C157.763 72.7385 157.708 72.6991 157.649 72.6668C157.526 72.5983 157.394 72.5548 157.254 72.5362C157.111 72.5158 156.968 72.5055 156.824 72.5053C156.658 72.4991 156.493 72.5144 156.331 72.5513C156.168 72.588 156.013 72.6448 155.865 72.7218C155.831 72.744 155.799 72.7684 155.769 72.795C155.738 72.8214 155.709 72.8498 155.682 72.8803C155.655 72.9105 155.63 72.9424 155.608 72.9758C155.585 73.0093 155.565 73.0441 155.547 73.0803C155.528 73.1165 155.512 73.1537 155.499 73.192C155.486 73.2303 155.475 73.2692 155.467 73.3089C155.459 73.3485 155.453 73.3885 155.45 73.4288C155.447 73.4694 155.447 73.5098 155.449 73.5502L154.542 73.5502C154.544 73.4001 154.563 73.2522 154.599 73.1064C154.635 72.9609 154.687 72.8213 154.755 72.6874C154.816 72.5731 154.89 72.4677 154.977 72.3712C155.063 72.2747 155.16 72.19 155.267 72.1169C155.49 71.9656 155.733 71.8602 155.996 71.8006C156.286 71.7369 156.579 71.706 156.876 71.7078C157.124 71.7078 157.372 71.725 157.618 71.7594C157.853 71.7899 158.074 71.8621 158.281 71.9759C158.381 72.0305 158.471 72.097 158.553 72.1756C158.635 72.2545 158.704 72.3426 158.763 72.44C158.828 72.5587 158.876 72.684 158.907 72.816C158.938 72.9477 158.951 73.0813 158.945 73.2168L158.945 76.0455C158.94 76.2025 158.951 76.3583 158.979 76.513C159.007 76.6127 159.089 76.6608 159.23 76.6608C159.325 76.6585 159.417 76.6448 159.509 76.6195L159.522 77.3207ZM158.051 74.4988C157.915 74.5916 157.766 74.6535 157.604 74.6844C157.419 74.7222 157.226 74.7532 157.023 74.7772L156.412 74.8632C156.22 74.8895 156.036 74.9411 155.858 75.0178C155.779 75.0501 155.706 75.0919 155.638 75.1429C155.57 75.1943 155.509 75.2534 155.456 75.3203C155.429 75.359 155.405 75.3998 155.384 75.4427C155.363 75.4853 155.346 75.5295 155.333 75.5753C155.32 75.6209 155.311 75.6673 155.305 75.7145C155.3 75.7618 155.299 75.8091 155.301 75.8565C155.299 75.922 155.306 75.9867 155.322 76.0503C155.338 76.1138 155.362 76.1741 155.394 76.2311C155.452 76.3334 155.53 76.417 155.628 76.4821C155.735 76.548 155.849 76.5939 155.972 76.6195C156.104 76.6477 156.238 76.6615 156.374 76.6608C156.638 76.6665 156.894 76.6264 157.144 76.5405C157.336 76.4704 157.509 76.3672 157.663 76.2311C157.792 76.1191 157.892 75.985 157.962 75.829C158.023 75.6995 158.056 75.5632 158.058 75.42L158.051 74.4988Z"   fill="#003F9B" >
</path>
<path d="M164.64 71.835L164.64 72.6324L163.54 72.6324L163.54 76.0696C163.538 76.1564 163.546 76.2424 163.564 76.3274C163.573 76.3572 163.586 76.3848 163.603 76.4102C163.621 76.4354 163.642 76.4571 163.667 76.4752C163.73 76.5155 163.799 76.5384 163.874 76.5439C163.988 76.5561 164.103 76.5618 164.217 76.5611L164.64 76.5611L164.64 77.3585L163.953 77.3585C163.751 77.3624 163.55 77.3464 163.351 77.3104C163.277 77.299 163.206 77.2783 163.137 77.2485C163.069 77.219 163.005 77.1812 162.946 77.1351C162.891 77.0877 162.844 77.0333 162.805 76.9718C162.766 76.9102 162.738 76.8443 162.719 76.7742C162.662 76.5719 162.637 76.3656 162.643 76.1555L162.643 72.6496L161.705 72.6496L161.705 71.835L162.643 71.835L162.643 70.1817L163.551 70.1817L163.551 71.835L164.64 71.835Z"   fill="#003F9B" >
</path>
<path d="M167.61 70.8417L167.61 69.7383L168.514 69.7383L168.514 70.8451L167.61 70.8417ZM168.514 71.835L168.514 77.3345L167.61 77.3345L167.61 71.835L168.514 71.835Z"   fill="#003F9B" >
</path>
<path d="M171.71 73.4575C171.763 73.289 171.833 73.1278 171.919 72.9738C172.006 72.8199 172.107 72.6763 172.223 72.5432C172.339 72.4112 172.468 72.2936 172.61 72.1905C172.752 72.0872 172.903 72.0008 173.065 71.9314C173.156 71.8947 173.249 71.8624 173.344 71.8344C173.438 71.8067 173.534 71.7834 173.63 71.7647C173.727 71.7459 173.825 71.7318 173.923 71.7224C174.021 71.713 174.119 71.7083 174.218 71.7083C174.316 71.7083 174.415 71.713 174.513 71.7224C174.611 71.7318 174.708 71.7459 174.805 71.7647C174.902 71.7834 174.997 71.8067 175.092 71.8344C175.187 71.8624 175.28 71.8947 175.371 71.9314C175.531 72.0012 175.681 72.0879 175.822 72.1912C175.963 72.2943 176.091 72.4116 176.206 72.5432C176.323 72.6758 176.424 72.8192 176.51 72.9732C176.597 73.1274 176.666 73.2888 176.718 73.4575C176.835 73.8278 176.893 74.207 176.89 74.5952C176.893 74.9801 176.836 75.3559 176.718 75.7225C176.666 75.8905 176.596 76.0512 176.51 76.2048C176.424 76.3583 176.322 76.5012 176.206 76.6334C176.092 76.7649 175.964 76.882 175.823 76.9847C175.682 77.0873 175.531 77.173 175.371 77.2418C175.279 77.2775 175.186 77.3089 175.092 77.336C174.997 77.363 174.901 77.3856 174.805 77.4037C174.708 77.4218 174.61 77.4354 174.512 77.4446C174.414 77.4537 174.316 77.4583 174.218 77.4583C174.12 77.4583 174.021 77.4537 173.923 77.4446C173.825 77.4354 173.728 77.4218 173.631 77.4037C173.534 77.3856 173.439 77.363 173.344 77.336C173.249 77.3089 173.156 77.2775 173.065 77.2418C172.903 77.1735 172.751 77.088 172.609 76.9854C172.467 76.8827 172.338 76.7654 172.223 76.6334C172.107 76.5007 172.006 76.3576 171.92 76.2041C171.834 76.0508 171.764 75.8903 171.71 75.7225C171.594 75.3557 171.538 74.9799 171.542 74.5952C171.539 74.207 171.595 73.8278 171.71 73.4575ZM172.632 75.4819C172.67 75.6016 172.721 75.716 172.782 75.8253C172.844 75.9349 172.917 76.0369 172.999 76.1316C173.076 76.2175 173.16 76.2943 173.253 76.3619C173.345 76.4297 173.444 76.487 173.549 76.5337C173.602 76.5564 173.655 76.5763 173.709 76.5935C173.764 76.6107 173.819 76.625 173.875 76.6365C173.931 76.6479 173.987 76.6567 174.044 76.6626C174.1 76.6684 174.157 76.6712 174.214 76.6712C174.271 76.6712 174.328 76.6684 174.385 76.6626C174.442 76.6567 174.498 76.6479 174.554 76.6365C174.61 76.625 174.665 76.6107 174.719 76.5935C174.774 76.5763 174.827 76.5564 174.88 76.5337C174.985 76.4874 175.084 76.4304 175.176 76.3625C175.269 76.2947 175.354 76.2177 175.429 76.1316C175.513 76.0374 175.585 75.9355 175.647 75.826C175.709 75.7165 175.759 75.6018 175.797 75.4819C175.842 75.338 175.875 75.1916 175.898 75.0427C175.92 74.8937 175.931 74.744 175.931 74.5934C175.931 74.4429 175.92 74.2931 175.898 74.1442C175.875 73.9953 175.842 73.8488 175.797 73.7049C175.758 73.5844 175.708 73.4688 175.646 73.3581C175.584 73.2477 175.512 73.1444 175.429 73.0484C175.354 72.9611 175.27 72.8833 175.177 72.815C175.084 72.7465 174.985 72.6891 174.88 72.6428C174.827 72.6202 174.774 72.6002 174.719 72.583C174.665 72.5659 174.61 72.5515 174.554 72.5401C174.498 72.5286 174.442 72.5199 174.385 72.514C174.328 72.5082 174.271 72.5054 174.214 72.5054C174.157 72.5054 174.1 72.5082 174.044 72.514C173.987 72.5199 173.931 72.5286 173.875 72.5401C173.819 72.5515 173.764 72.5659 173.709 72.583C173.655 72.6002 173.602 72.6202 173.549 72.6428C173.444 72.6896 173.345 72.7471 173.252 72.8154C173.159 72.8839 173.075 72.9616 172.999 73.0484C172.917 73.1449 172.845 73.2484 172.784 73.3588C172.722 73.4693 172.671 73.5846 172.632 73.7049C172.588 73.8491 172.556 73.9956 172.534 74.1445C172.512 74.2933 172.501 74.4429 172.501 74.5934C172.501 74.744 172.512 74.8936 172.534 75.0423C172.556 75.1913 172.588 75.3378 172.632 75.4819Z"   fill="#003F9B" >
</path>
<path d="M180.726 71.8349L180.726 72.708L180.747 72.708C180.768 72.6681 180.791 72.6292 180.815 72.5911C180.839 72.5528 180.865 72.5156 180.891 72.4794C180.918 72.443 180.946 72.4076 180.975 72.3732C181.005 72.3388 181.035 72.3056 181.067 72.2735C181.098 72.2412 181.131 72.2102 181.165 72.1804C181.199 72.1506 181.234 72.1219 181.27 72.0945C181.306 72.0672 181.342 72.0412 181.38 72.0164C181.418 71.9917 181.457 71.9683 181.496 71.9463C181.535 71.9241 181.576 71.9035 181.616 71.8844C181.657 71.8652 181.699 71.8475 181.741 71.8315C181.783 71.8152 181.826 71.8005 181.869 71.7872C181.912 71.7741 181.956 71.7625 182 71.7524C182.044 71.7424 182.088 71.7339 182.133 71.727C182.177 71.7201 182.222 71.7148 182.267 71.7109C182.312 71.7072 182.357 71.7051 182.402 71.7047C182.447 71.704 182.492 71.705 182.538 71.7078C182.691 71.703 182.845 71.7129 182.997 71.7377C183.149 71.7626 183.297 71.8019 183.441 71.8556C183.498 71.8771 183.552 71.902 183.605 71.9302C183.658 71.9583 183.709 71.9897 183.758 72.0243C183.807 72.0589 183.854 72.0965 183.899 72.1371C183.943 72.1774 183.985 72.2204 184.024 72.266C184.063 72.3116 184.099 72.3593 184.133 72.4093C184.166 72.4595 184.196 72.5114 184.223 72.565C184.25 72.6188 184.273 72.6741 184.293 72.7307C184.313 72.7875 184.329 72.8452 184.342 72.9039C184.406 73.1715 184.437 73.4431 184.435 73.7185L184.435 77.3413L183.545 77.3413L183.545 73.612C183.549 73.5379 183.545 73.4644 183.534 73.3913C183.522 73.318 183.504 73.2466 183.478 73.1772C183.453 73.1077 183.42 73.0416 183.381 72.9788C183.342 72.916 183.297 72.8578 183.246 72.8042C183.191 72.7529 183.132 72.7075 183.068 72.6681C183.005 72.6287 182.937 72.5962 182.867 72.5705C182.797 72.5448 182.725 72.5265 182.651 72.5155C182.577 72.5045 182.502 72.5011 182.428 72.5052C182.304 72.502 182.182 72.5111 182.06 72.5327C181.939 72.554 181.821 72.5872 181.706 72.6324C181.608 72.6722 181.517 72.723 181.431 72.7846C181.346 72.846 181.269 72.9167 181.2 72.9967C181.132 73.0762 181.072 73.162 181.021 73.2542C180.97 73.3463 180.929 73.4426 180.898 73.5432C180.827 73.7669 180.793 73.996 180.795 74.2307L180.795 77.3413L179.891 77.3413L179.891 71.8418L180.726 71.8349Z"   fill="#003F9B" >
</path>
<path d="M193.426 69.7383L193.426 77.3448L192.416 77.3448L192.416 69.7383L193.426 69.7383Z"   fill="#003F9B" >
</path>
<path d="M197.754 71.8349L197.754 72.708L197.774 72.708C197.796 72.6681 197.818 72.6292 197.843 72.5911C197.867 72.5528 197.892 72.5156 197.919 72.4794C197.946 72.443 197.974 72.4076 198.003 72.3732C198.032 72.3388 198.063 72.3056 198.094 72.2735C198.126 72.2412 198.159 72.2102 198.193 72.1804C198.227 72.1506 198.262 72.1219 198.298 72.0945C198.333 72.0672 198.37 72.0412 198.408 72.0164C198.446 71.9917 198.484 71.9683 198.524 71.9463C198.563 71.9241 198.603 71.9035 198.644 71.8844C198.685 71.8652 198.727 71.8475 198.768 71.8315C198.811 71.8152 198.853 71.8005 198.897 71.7872C198.94 71.7741 198.983 71.7625 199.027 71.7524C199.071 71.7424 199.116 71.7339 199.16 71.727C199.205 71.7201 199.25 71.7148 199.295 71.7109C199.34 71.7072 199.385 71.7051 199.43 71.7047C199.475 71.704 199.52 71.705 199.565 71.7078C199.719 71.703 199.872 71.7129 200.024 71.7377C200.177 71.7626 200.325 71.8019 200.469 71.8556C200.583 71.8998 200.689 71.9571 200.789 72.0274C200.888 72.0978 200.977 72.1791 201.057 72.2715C201.133 72.3631 201.198 72.4623 201.25 72.5691C201.303 72.6761 201.343 72.7877 201.37 72.9039C201.434 73.1715 201.465 73.4431 201.463 73.7185L201.463 77.3413L200.555 77.3413L200.555 73.612C200.559 73.5379 200.555 73.4644 200.544 73.3913C200.533 73.318 200.514 73.2466 200.489 73.1772C200.463 73.1077 200.431 73.0416 200.392 72.9788C200.352 72.916 200.307 72.8578 200.256 72.8042C200.202 72.7529 200.142 72.7075 200.079 72.6681C200.015 72.6287 199.948 72.5962 199.878 72.5705C199.808 72.5448 199.735 72.5265 199.661 72.5155C199.587 72.5045 199.513 72.5011 199.438 72.5052C199.315 72.502 199.192 72.5111 199.071 72.5327C198.949 72.554 198.831 72.5872 198.716 72.6324C198.619 72.6722 198.527 72.723 198.442 72.7846C198.356 72.846 198.28 72.9167 198.211 72.9967C198.142 73.0762 198.082 73.162 198.031 73.2542C197.98 73.3463 197.939 73.4426 197.909 73.5432C197.837 73.7669 197.803 73.996 197.805 74.2307L197.805 77.3413L196.901 77.3413L196.901 71.8418L197.754 71.8349Z"   fill="#003F9B" >
</path>
<path d="M205.436 76.1108C205.476 76.1825 205.526 76.2476 205.584 76.3061C205.643 76.3645 205.708 76.414 205.78 76.4545C205.921 76.5311 206.071 76.5838 206.23 76.6127C206.407 76.6472 206.586 76.6644 206.766 76.6642C206.917 76.6637 207.067 76.6534 207.216 76.6333C207.365 76.6136 207.508 76.5746 207.646 76.5164C207.713 76.4901 207.776 76.4556 207.834 76.413C207.892 76.3706 207.944 76.3214 207.99 76.2655C208.034 76.2043 208.068 76.1375 208.089 76.0651C208.111 75.9925 208.12 75.9184 208.117 75.8427C208.118 75.8168 208.118 75.7908 208.116 75.7647C208.114 75.7388 208.11 75.7132 208.104 75.6877C208.099 75.6623 208.092 75.6373 208.083 75.6128C208.075 75.5883 208.065 75.5643 208.053 75.541C208.041 75.5178 208.028 75.4955 208.014 75.4739C207.999 75.4524 207.983 75.4319 207.966 75.4124C207.949 75.3929 207.93 75.3746 207.911 75.3574C207.891 75.3402 207.87 75.3244 207.849 75.31C207.643 75.1771 207.422 75.0797 207.185 75.0178C206.917 74.9422 206.628 74.8769 206.316 74.815C206.017 74.76 205.727 74.6752 205.446 74.5607C205.319 74.5098 205.2 74.4452 205.088 74.3668C204.976 74.2884 204.874 74.1984 204.783 74.0966C204.736 74.0387 204.694 73.9769 204.658 73.9114C204.623 73.8456 204.593 73.7772 204.57 73.7062C204.547 73.6349 204.531 73.5622 204.522 73.4879C204.512 73.4139 204.51 73.3396 204.515 73.2649C204.511 73.1393 204.525 73.0158 204.557 72.8943C204.589 72.7727 204.636 72.6579 204.7 72.5499C204.762 72.453 204.834 72.3636 204.915 72.2818C204.996 72.2002 205.085 72.1281 205.181 72.0653C205.386 71.937 205.606 71.8453 205.841 71.7903C206.081 71.73 206.324 71.7003 206.57 71.7009C206.862 71.6977 207.15 71.7241 207.436 71.78C207.683 71.8283 207.912 71.92 208.124 72.055C208.225 72.1223 208.317 72.2012 208.399 72.2914C208.481 72.3815 208.551 72.4803 208.608 72.5877C208.673 72.7186 208.723 72.8547 208.759 72.9961C208.795 73.1372 208.815 73.2807 208.821 73.4264L207.914 73.4264C207.911 73.3478 207.898 73.2709 207.874 73.1958C207.851 73.1206 207.818 73.0497 207.777 72.983C207.698 72.8666 207.598 72.7727 207.477 72.7012C207.353 72.6274 207.22 72.5758 207.079 72.5465C206.933 72.5149 206.785 72.4988 206.635 72.4984C206.498 72.4986 206.362 72.5089 206.226 72.5293C206.094 72.5474 205.968 72.5852 205.848 72.6427C205.739 72.6915 205.646 72.7626 205.57 72.8558C205.533 72.9051 205.505 72.9593 205.486 73.0184C205.468 73.0775 205.46 73.1379 205.463 73.1995C205.462 73.236 205.465 73.2721 205.472 73.3078C205.479 73.3436 205.49 73.3782 205.504 73.4116C205.518 73.4451 205.536 73.4767 205.557 73.5065C205.578 73.536 205.601 73.5632 205.628 73.5879C205.753 73.6993 205.894 73.7841 206.051 73.8423C206.238 73.9152 206.429 73.9725 206.625 74.0142L207.264 74.1585C207.491 74.2066 207.715 74.2685 207.931 74.3372C208.137 74.4028 208.328 74.4967 208.505 74.6191C208.588 74.6771 208.664 74.7435 208.732 74.8185C208.801 74.8932 208.86 74.9745 208.911 75.0625C208.965 75.1638 209.005 75.2703 209.032 75.3822C209.058 75.4942 209.069 75.6076 209.065 75.7224C209.071 75.8682 209.056 76.0118 209.021 76.1535C208.985 76.2951 208.93 76.4286 208.856 76.5542C208.788 76.6637 208.708 76.7636 208.617 76.8536C208.525 76.9439 208.424 77.0217 208.313 77.087C208.078 77.2272 207.826 77.3212 207.557 77.3688C207.281 77.4225 207.002 77.4488 206.721 77.4479C206.427 77.4493 206.136 77.4183 205.848 77.3551C205.583 77.2952 205.338 77.1899 205.113 77.0389C205.005 76.9655 204.908 76.8803 204.821 76.7831C204.735 76.6862 204.661 76.5801 204.601 76.4649C204.533 76.3297 204.481 76.1887 204.445 76.0421C204.409 75.8952 204.39 75.7463 204.387 75.5952L205.295 75.5952C205.295 75.686 205.306 75.7751 205.33 75.8626C205.354 75.9502 205.39 76.0329 205.436 76.1108Z"   fill="#003F9B" >
</path>
<path d="M214.342 71.835L214.342 72.6324L213.245 72.6324L213.245 76.0696C213.243 76.1567 213.252 76.2426 213.273 76.3274C213.28 76.3569 213.293 76.3844 213.31 76.4099C213.327 76.4353 213.348 76.4571 213.372 76.4752C213.437 76.5148 213.507 76.5377 213.582 76.5439C213.696 76.5561 213.811 76.5618 213.926 76.5611L214.338 76.5611L214.338 77.3585L213.651 77.3585C213.449 77.3624 213.248 77.3464 213.049 77.3104C212.975 77.2992 212.904 77.2788 212.835 77.2492C212.766 77.2194 212.702 77.1814 212.644 77.1351C212.589 77.0872 212.542 77.0326 212.502 76.9712C212.463 76.9097 212.433 76.8441 212.413 76.7742C212.359 76.5714 212.335 76.3652 212.341 76.1555L212.341 72.6496L211.403 72.6496L211.403 71.835L212.341 71.835L212.341 70.1817L213.245 70.1817L213.245 71.835L214.342 71.835Z"   fill="#003F9B" >
</path>
<path d="M217.315 70.8417L217.315 69.7383L218.222 69.7383L218.222 70.8451L217.315 70.8417ZM218.222 71.835L218.222 77.3345L217.315 77.3345L217.315 71.835L218.222 71.835Z"   fill="#003F9B" >
</path>
<path d="M223.9 71.835L223.9 72.6324L222.804 72.6324L222.804 76.0696C222.8 76.1569 222.81 76.2428 222.831 76.3274C222.839 76.3574 222.851 76.3851 222.868 76.4106C222.885 76.436 222.906 76.4576 222.931 76.4752C222.994 76.5151 223.063 76.538 223.137 76.5439C223.252 76.5561 223.366 76.5618 223.481 76.5611L223.897 76.5611L223.897 77.3585L223.209 77.3585C223.006 77.3624 222.805 77.3464 222.605 77.3104C222.531 77.299 222.46 77.2783 222.392 77.2485C222.324 77.219 222.261 77.1812 222.202 77.1351C222.147 77.0877 222.1 77.0333 222.06 76.9718C222.021 76.9104 221.992 76.8446 221.972 76.7742C221.915 76.5719 221.89 76.3656 221.896 76.1555L221.896 72.6496L220.958 72.6496L220.958 71.835L221.896 71.835L221.896 70.1817L222.804 70.1817L222.804 71.835L223.9 71.835Z"   fill="#003F9B" >
</path>
<path d="M230.527 77.3413L230.527 76.4683L230.507 76.4683C230.465 76.5469 230.418 76.6222 230.365 76.6941C230.312 76.7661 230.255 76.8339 230.193 76.8976C230.131 76.9613 230.064 77.0202 229.993 77.0743C229.923 77.1286 229.849 77.1775 229.771 77.221C229.608 77.3033 229.437 77.3645 229.258 77.4046C229.079 77.4449 228.899 77.4628 228.716 77.4582C228.562 77.4633 228.409 77.4538 228.257 77.43C228.105 77.4064 227.957 77.3688 227.812 77.3173C227.698 77.2744 227.591 77.2181 227.492 77.1482C227.392 77.0783 227.303 76.9972 227.224 76.9048C227.148 76.8132 227.083 76.714 227.031 76.6072C226.978 76.5002 226.938 76.3886 226.911 76.2724C226.847 76.0047 226.816 75.7332 226.818 75.4578L226.818 71.835L227.726 71.835L227.726 75.5815C227.722 75.6555 227.726 75.7291 227.737 75.8022C227.748 75.8755 227.767 75.9469 227.792 76.0163C227.818 76.0857 227.85 76.1518 227.889 76.2146C227.929 76.2774 227.974 76.3356 228.025 76.3893C228.079 76.4406 228.139 76.4859 228.202 76.5254C228.266 76.5648 228.333 76.5973 228.403 76.623C228.473 76.6487 228.546 76.667 228.62 76.678C228.694 76.689 228.768 76.6924 228.843 76.6883C228.966 76.6915 229.089 76.6824 229.21 76.6611C229.332 76.6396 229.45 76.6062 229.565 76.5611C229.662 76.5212 229.754 76.4706 229.839 76.4092C229.924 76.3476 230.001 76.2767 230.07 76.1968C230.139 76.1173 230.199 76.0314 230.25 75.9393C230.301 75.8472 230.342 75.7509 230.372 75.6503C230.444 75.4266 230.478 75.1975 230.476 74.9628L230.476 71.835L231.38 71.835L231.38 77.3345L230.527 77.3413Z"   fill="#003F9B" >
</path>
<path d="M237.017 71.835L237.017 72.6324L235.92 72.6324L235.92 76.0696C235.917 76.1569 235.926 76.2428 235.948 76.3274C235.955 76.3569 235.968 76.3844 235.985 76.4099C236.002 76.4353 236.023 76.4571 236.047 76.4752C236.11 76.5151 236.179 76.538 236.253 76.5439C236.368 76.5561 236.482 76.5618 236.597 76.5611L237.013 76.5611L237.013 77.3585L236.326 77.3585C236.122 77.3624 235.921 77.3464 235.721 77.3104C235.647 77.299 235.576 77.2783 235.508 77.2485C235.44 77.219 235.377 77.1812 235.319 77.1351C235.263 77.0877 235.216 77.0333 235.177 76.9718C235.137 76.9104 235.108 76.8446 235.088 76.7742C235.033 76.5717 235.008 76.3654 235.013 76.1555L235.013 72.6496L234.071 72.6496L234.071 71.835L235.009 71.835L235.009 70.1817L235.917 70.1817L235.917 71.835L237.017 71.835Z"   fill="#003F9B" >
</path>
<path d="M243.836 76.9907C243.724 77.0713 243.605 77.1422 243.481 77.2031C243.357 77.2643 243.229 77.3147 243.096 77.3544C242.964 77.3942 242.829 77.4229 242.692 77.4403C242.555 77.4577 242.417 77.4637 242.279 77.4582C242.083 77.463 241.889 77.4477 241.696 77.4125C241.503 77.3772 241.316 77.3225 241.134 77.2485C240.978 77.1802 240.831 77.0956 240.694 76.9948C240.556 76.8938 240.432 76.779 240.32 76.6504C240.206 76.5161 240.108 76.3718 240.024 76.2173C239.941 76.0627 239.875 75.9011 239.825 75.7327C239.711 75.3537 239.649 74.9664 239.639 74.5709C239.636 74.3755 239.651 74.1814 239.683 73.9887C239.715 73.7957 239.763 73.6072 239.828 73.4229C239.888 73.2559 239.964 73.0961 240.054 72.9434C240.145 72.7908 240.25 72.6482 240.368 72.5155C240.426 72.4509 240.488 72.3897 240.553 72.332C240.618 72.274 240.686 72.2196 240.757 72.1687C240.828 72.1181 240.901 72.0712 240.977 72.0281C241.053 71.985 241.131 71.9462 241.211 71.9116C241.291 71.8768 241.372 71.8464 241.455 71.8205C241.539 71.7944 241.623 71.7727 241.708 71.7556C241.794 71.7384 241.88 71.7259 241.966 71.7181C242.053 71.7101 242.14 71.7066 242.227 71.7078C242.334 71.7037 242.44 71.707 242.545 71.7178C242.651 71.7285 242.756 71.7467 242.859 71.7724C242.962 71.7978 243.063 71.8305 243.162 71.8704C243.26 71.9102 243.356 71.9569 243.448 72.0103C243.605 72.1076 243.749 72.2216 243.881 72.3522C244.012 72.4829 244.126 72.6266 244.224 72.7836C244.323 72.9417 244.406 73.1074 244.474 73.2806C244.542 73.4539 244.594 73.6319 244.63 73.8148C244.704 74.1626 244.734 74.5143 244.719 74.87L240.602 74.87C240.594 75.1035 240.621 75.3326 240.684 75.5574C240.715 75.6628 240.757 75.7638 240.809 75.8606C240.861 75.9573 240.922 76.0476 240.993 76.1314C241.068 76.2178 241.151 76.2949 241.243 76.3627C241.334 76.4306 241.432 76.4875 241.536 76.5336C241.66 76.5856 241.787 76.624 241.919 76.6487C242.05 76.6737 242.183 76.6846 242.317 76.6814C242.4 76.6848 242.482 76.6816 242.565 76.6717C242.647 76.6621 242.729 76.6461 242.809 76.6236C242.889 76.6011 242.966 76.5726 243.042 76.538C243.117 76.5032 243.189 76.4628 243.258 76.4167C243.322 76.367 243.381 76.3119 243.434 76.2514C243.488 76.1909 243.535 76.1259 243.577 76.0565C243.618 75.9871 243.653 75.9144 243.681 75.8386C243.709 75.763 243.73 75.6853 243.743 75.6055L244.64 75.6055C244.63 75.6731 244.616 75.74 244.599 75.8063C244.582 75.8725 244.562 75.9378 244.539 76.0022C244.517 76.0666 244.491 76.1298 244.462 76.1919C244.434 76.2538 244.402 76.3143 244.368 76.3734C244.333 76.4325 244.296 76.4899 244.257 76.5456C244.217 76.6013 244.175 76.655 244.13 76.7068C244.086 76.7586 244.039 76.8082 243.99 76.8556C243.941 76.9031 243.889 76.9481 243.836 76.9907ZM243.619 73.4539C243.538 73.2655 243.424 73.1005 243.276 72.9589C243.137 72.8102 242.974 72.6956 242.788 72.6152C242.689 72.573 242.587 72.5415 242.481 72.5207C242.376 72.4998 242.269 72.4901 242.162 72.4915C242.053 72.4899 241.946 72.4995 241.839 72.5203C241.733 72.5412 241.629 72.5728 241.53 72.6152C241.437 72.6548 241.351 72.7035 241.269 72.7613C241.187 72.8192 241.113 72.8851 241.045 72.9589C240.91 73.1053 240.803 73.2703 240.725 73.4539C240.646 73.6477 240.6 73.8494 240.588 74.0588L243.75 74.0588C243.739 73.8501 243.696 73.6484 243.619 73.4539Z"   fill="#003F9B" >
</path>
<path d="M53.8741 60.1143L53.8741 57.9007L62.0271 57.9007L62.0271 40.3712L64.7768 40.3712L64.7768 46.7506L73.2803 46.7506L73.2803 49.1566L64.7734 49.1566L64.7734 57.9317L74.9646 57.9317L74.9646 60.1143L53.8741 60.1143Z"   fill="#003F9B" >
</path>
<path d="M90.8992 50.7205C89.891 49.7787 88.7682 48.8335 87.5308 47.8849L89.0363 46.29C90.276 47.1768 91.4286 48.0636 92.4941 48.9504L90.8992 50.7205ZM90.1912 61.2657L87.8848 60.647C88.7144 57.8125 89.3938 55.1774 89.9231 52.7416C90.6696 53.0507 91.4384 53.2878 92.2294 53.4531C91.2808 57.0094 90.6013 59.6136 90.1912 61.2657ZM91.5179 44.8739C91.2888 44.6952 90.9348 44.3996 90.4559 43.9871C90.0388 43.5746 89.2712 42.925 88.1529 42.0382L89.6584 40.354C90.3069 40.8879 91.4526 41.8045 93.0956 43.1038L91.5179 44.8739ZM93.924 47.7989C93.8511 47.7189 93.7926 47.6296 93.7487 47.5308C93.4049 47.1184 92.9512 46.644 92.4185 46.1147C92.8752 45.6867 93.3083 45.2359 93.7177 44.7625C94.1272 44.2889 94.5107 43.7952 94.8681 43.2815C95.2256 42.7677 95.5552 42.2367 95.857 41.6883C96.1588 41.1398 96.431 40.577 96.6737 40L99.1519 40.2647C98.8222 40.8075 98.5277 41.3689 98.2685 41.9489L108.614 41.9489L108.614 43.8977L97.1033 43.8977C96.983 44.0765 96.7768 44.3411 96.4812 44.6952C96.3116 45.0164 96.1054 45.312 95.8625 45.582L107.291 45.582L107.291 47.1768C107.234 48.7121 107.205 49.9529 107.205 50.8992L109.065 50.8992L109.065 52.8481L107.116 52.8481L107.026 56.2165L108.614 56.2165L108.614 58.1654L106.93 58.1654C106.873 60.1727 105.692 61.1775 103.386 61.1798L100.021 61.1798C99.8462 60.5886 99.6778 59.9665 99.4922 59.3169L100.998 59.3169C101.706 59.3753 102.266 59.4062 102.682 59.4062C103.923 59.4647 104.6 59.0625 104.72 58.1654L93.7212 58.1654L94.3398 52.8481L92.4941 52.8481L92.4941 50.8992L94.6217 50.8992L95.0651 46.5581C94.703 46.9133 94.3181 47.3269 93.9102 47.7989L93.924 47.7989ZM104.823 56.2165C104.883 55.5681 104.913 54.4453 104.913 52.8481L96.5843 52.8481L96.1409 56.2165L101.369 56.2165C101.073 55.9794 100.63 55.6563 100.039 55.2404C99.5093 54.8279 99.0934 54.5048 98.7979 54.2677L100.039 53.0269C100.217 53.1437 100.513 53.3499 100.925 53.6455C101.634 54.1199 102.225 54.5335 102.699 54.8864L101.458 56.2165L104.823 56.2165ZM97.203 47.5308L96.7596 50.8992L105.009 50.8992C105.009 49.1257 105.036 48.0052 105.098 47.5308L97.203 47.5308ZM101.634 50.8099C100.817 50.1091 99.9607 49.4595 99.0659 48.861L100.307 47.6202C100.719 47.9158 101.279 48.2996 101.988 48.7716C102.331 49.0672 102.637 49.3044 102.874 49.4797L101.634 50.8099Z"   fill="#003F9B" >
</path>
<path d="M132.884 47.8848L132.709 47.7989C132.709 49.3365 132.649 50.9313 132.53 52.5835C132.473 54.4166 131.556 55.3618 129.78 55.4191L127.299 55.5085C127.24 55.2129 127.12 54.6801 126.955 53.9136C126.906 53.7393 126.876 53.5617 126.866 53.3809C127.695 53.4404 128.404 53.4702 128.993 53.4702C129.88 53.5287 130.368 53.0578 130.499 52.0507L130.499 51.1776C130.557 50.528 130.588 50.0571 130.588 49.7615L125.707 49.7615L125.707 57.2924C125.65 58.3006 126.152 58.8036 127.213 58.8013L130.049 58.8013C131.052 58.8013 131.643 58.4163 131.822 57.6464C131.831 57.4665 131.861 57.2901 131.911 57.1171C132.03 56.5905 132.118 56.0589 132.176 55.5222C132.376 55.6052 132.582 55.6636 132.795 55.6975C133.309 55.9296 133.842 56.1072 134.393 56.2303C134.29 56.89 134.142 57.5396 133.95 58.1792C133.913 58.3929 133.853 58.6003 133.771 58.8013C133.418 60.1601 132.295 60.8097 130.403 60.7502L126.684 60.7502C124.493 60.8074 123.429 59.7763 123.49 57.6567L123.49 48.507C123.384 48.6053 123.269 48.6935 123.147 48.7716C122.895 48.9974 122.63 49.2047 122.349 49.3938C122.071 48.6635 121.747 47.9543 121.377 47.2662C121.705 47.0418 122.026 46.8069 122.338 46.5615C122.651 46.3159 122.955 46.0602 123.251 45.7944C123.547 45.5286 123.834 45.2531 124.111 44.9681C124.388 44.6832 124.656 44.3895 124.914 44.0868C125.172 43.7841 125.419 43.4731 125.657 43.1539C125.894 42.8347 126.12 42.5081 126.336 42.174C126.551 41.8397 126.755 41.4986 126.948 41.1508C127.141 40.8029 127.322 40.4491 127.491 40.0894L129.897 40.2647C129.827 40.4079 129.767 40.5557 129.719 40.708C129.598 40.9452 129.512 41.1239 129.454 41.2408C130.458 42.1276 131.757 43.3971 133.352 45.0492L134.503 46.2041L132.884 47.8848ZM128.364 43.0109C127.817 43.8865 127.21 44.7179 126.542 45.5053C125.873 46.2924 125.152 47.0272 124.377 47.7095L132.709 47.7095C132.235 47.1184 131.525 46.3164 130.581 45.3035C129.637 44.2907 128.898 43.5265 128.364 43.0109ZM135.012 55.9519L135.012 42.5847L137.229 42.5847L137.229 55.9656L135.012 55.9519ZM135.988 61.0011C135.869 60.293 135.721 59.5552 135.545 58.7875L138.294 58.7875C139.298 58.7875 139.77 58.3143 139.71 57.368L139.71 40.1787L142.017 40.1787L142.017 57.9901C142.134 59.9424 141.188 60.9472 139.181 61.0045L135.988 61.0011Z"   fill="#003F9B" >
</path>
<path d="M165.389 51.5214L174.264 51.5214L174.264 61.3585L171.858 61.3585L171.858 60.3858L160.605 60.3858L160.605 61.3585L158.302 61.3585L158.302 51.6073C157.806 51.797 157.333 52.0331 156.882 52.3154C156.473 51.6715 156.029 51.0516 155.552 50.4559C158.034 49.5622 159.574 48.499 160.172 47.2662L155.731 47.2662L155.731 45.4926L160.605 45.4926C160.728 44.8487 160.788 44.1991 160.784 43.5437L158.656 43.5437C158.161 44.2247 157.6 44.8457 156.972 45.4067C156.852 45.2864 156.707 45.1386 156.528 44.9633C156.235 44.6062 155.909 44.2809 155.552 43.9871C155.709 43.8556 155.86 43.7189 156.007 43.5771C156.154 43.4352 156.297 43.2887 156.434 43.1374C156.571 42.9862 156.704 42.8306 156.831 42.6707C156.958 42.5105 157.079 42.3463 157.195 42.1781C157.311 42.0099 157.421 41.8381 157.526 41.6626C157.63 41.487 157.729 41.3082 157.821 41.126C157.914 40.9441 158 40.7592 158.08 40.5713C158.161 40.3834 158.234 40.1929 158.302 40L160.426 40.1753C160.263 40.7401 160.027 41.2729 159.718 41.7736L166.098 41.7736L166.098 43.5437L163.004 43.5437C162.996 43.8712 162.966 44.1965 162.915 44.5199C162.93 44.8482 162.9 45.1725 162.825 45.4926L166.727 45.4926L166.727 47.2662L162.554 47.2662C163.202 47.6786 164.207 48.2984 165.568 49.1257C166.039 49.4247 166.393 49.6309 166.63 49.7478L165.389 51.5214ZM165.389 51.5214C164.681 50.9921 163.706 50.284 162.464 49.3972C162.192 49.1575 161.898 48.949 161.581 48.7716C161.047 49.718 159.983 50.6346 158.388 51.5214L165.389 51.5214ZM160.605 53.3843L160.605 55.2438L171.858 55.2438L171.858 53.3843L160.605 53.3843ZM160.605 56.8387L160.605 58.791L171.858 58.791L171.858 56.8387L160.605 56.8387ZM167.606 50.0159L167.606 41.5948L175.856 41.5948L175.856 50.0125L167.606 50.0159ZM169.731 43.5472L169.731 48.153L173.721 48.153L173.721 43.5437L169.731 43.5472Z"   fill="#003F9B" >
</path>
<path d="M189.652 55.7731L189.652 53.5562L199.49 53.5562L199.49 52.9375L203.136 50.7205L193.375 50.7205L193.375 48.5963L206.666 48.5963L206.666 50.7205L202.061 53.5562L210.654 53.5562L210.654 55.7731L201.971 55.7731L201.971 58.3441C202.03 60.2311 201.026 61.1798 198.957 61.1798L195.502 61.1798C195.324 60.3514 195.159 59.5849 194.97 58.8734L196.389 58.8734C197.039 58.9319 197.541 58.9628 197.895 58.9628C199.077 59.0797 199.613 58.6191 199.49 57.5467L199.49 55.7731L189.652 55.7731ZM190.185 49.3937L190.185 44.5198L203.48 44.5198L203.136 44.3411C204.319 42.7371 205.264 41.3783 205.972 40.2646L208.543 41.0621C208.314 41.3577 207.989 41.801 207.567 42.3922L205.972 44.5198L210.049 44.5198L210.049 49.3937L207.746 49.3937L207.746 46.644L192.481 46.644L192.481 49.3937L190.185 49.3937ZM193.729 44.3411C193.5 43.986 193.146 43.4245 192.667 42.6569C192.135 41.9488 191.751 41.4172 191.515 41.0621L193.921 40.354C194.746 41.4149 195.514 42.4461 196.224 43.4475L193.729 44.3411ZM199.49 43.8977C199.294 43.5833 199.116 43.2591 198.957 42.925C198.661 42.5125 198.189 41.7105 197.541 40.519L199.947 40.0756C200.655 41.1388 201.364 42.2318 202.074 43.3546L199.49 43.8977Z"   fill="#003F9B" >
</path>
<path d="M224.103 61.3551L224.103 41.1514L230.661 41.1514L230.661 43.2722L228.891 49.2082C230.186 50.8626 230.806 52.6052 230.751 54.4361C230.751 56.684 229.949 57.9248 228.345 58.1585L227.637 58.1585C227.373 58.2138 227.108 58.2435 226.839 58.2479C226.791 57.8292 226.707 57.4179 226.588 57.014C226.468 56.61 226.315 56.2193 226.128 55.8419L227.458 55.8419C228.286 55.9003 228.699 55.2816 228.699 53.9789C228.699 52.6763 228.107 51.1433 226.925 49.3731L228.609 43.2584L226.128 43.2584L226.128 61.3345L224.103 61.3551ZM231.194 53.2915L231.194 51.2533L244.314 51.2533L244.314 53.2915L240.323 53.2915L240.323 57.9867C240.265 58.5779 240.529 58.8425 241.121 58.7875L241.743 58.7875C242.33 58.7875 242.657 58.5194 242.715 57.9867C242.849 57.1354 242.939 56.2795 242.983 55.4191C243.634 55.6483 244.254 55.8545 244.843 56.0378C244.785 56.629 244.695 57.3405 244.578 58.1654C244.531 58.3703 244.502 58.5776 244.489 58.7875C244.26 60.1463 243.343 60.8246 241.739 60.8223L240.763 60.8223C238.993 60.8808 238.134 60.1143 238.195 58.5194L238.195 53.2915L236.157 53.2915L236.068 54.1783C236.068 57.3107 234.384 59.7327 231.015 61.4445C230.795 61.1358 230.559 60.8402 230.307 60.5577C229.963 60.1452 229.689 59.8496 229.51 59.6709C232.404 58.4908 233.851 56.6576 233.851 54.1714L233.94 53.2846L231.194 53.2915ZM231.283 46.5581L231.283 42.5847L236.601 42.5847C236.388 41.8267 236.122 41.0877 235.803 40.3678L238.371 40.1031C238.429 40.2784 238.55 40.6049 238.715 41.0758C238.952 41.7289 239.127 42.2273 239.247 42.5847L244.121 42.5847L244.121 46.5718L241.994 46.5718L241.994 44.623L233.401 44.623L233.401 46.5718L231.283 46.5581ZM232.435 48.9641L232.435 47.0152L242.98 47.0152L242.98 48.9641L232.435 48.9641Z"   fill="#003F9B" >
</path>
<path d="M18.5779 41.9334L3.15875 54.5444C0.477766 56.7442 0 58.2668 0 61.5631L0 80C0.986466 76.8138 2.4232 74.8717 5.10075 72.6995L31.5429 51.0453C35.0385 46.4017 22.2969 42.1431 18.5779 41.9334Z" fill-rule="evenodd"  fill="url(#linear_fill_1mTjfpvkY4HbpZV0UH340)" >
</path>
<path d="M18.5779 41.9334L27.1708 45.6833C30.1302 46.9792 32.8352 48.2784 31.5394 51.0384L41.6309 42.7893C45.0131 40.0395 42.0812 37.1489 35.6846 34.3579L30.5564 32.1375C28.4425 30.1611 0.395274 20.7192 6.70934 16.3506C2.79098 16.8421 0 18.5607 0 23.6786L0 29.0062C0 32.7287 0.477766 34.052 3.91837 35.5368L18.5779 41.9334Z" fill-rule="evenodd"  fill="url(#linear_fill_cWBqLKxIu4es0r_4soDX4)" >
</path>
<path d="M8.28699 22.4103L30.5564 32.1375L47.7422 18.0692C50.3923 15.9278 50.1483 13.1093 47.9382 10.6277C51.0488 17.1858 31.5153 15.5325 27.7654 16.1547L10.2049 16.1547C9.03554 16.1447 7.87033 16.21 6.70935 16.3506C3.83244 17.3817 4.05929 20.5508 8.28699 22.4103Z" fill-rule="evenodd"  fill="url(#linear_fill_i4P1I9WIC84Fb23GOZhU5)" >
</path>
<path d="M27.7654 16.1547L41.9334 16.1547C46.3605 16.1547 50.2479 14.742 47.9656 10.6277C45.0269 7.27304 44.3704 3.66402 45.7762 0L27.7654 16.1547Z" fill-rule="evenodd"  fill="url(#linear_fill_X2sVfNUozUlC3U0fW1mK3)" >
</path>
<path d="M41.6069 17.2511C46.4842 17.3921 50.9938 15.3057 47.9484 10.6277C50.2307 14.742 46.3433 16.1547 41.9334 16.1547L10.2049 16.1547C9.03553 16.1447 7.87033 16.21 6.70935 16.3506C16.8834 16.1547 29.9377 16.9693 41.6069 17.2511Z" fill-rule="evenodd"  fill="url(#linear_fill_NpRrglBADYLhiZu9e79yg)" >
</path>
<path d="M41.9334 16.1547C46.3605 16.1547 50.2479 14.742 47.9656 10.6277C50.5607 17.1377 32.519 13.6146 34.7463 9.8956L27.7654 16.1547L41.9334 16.1547Z" fill-rule="evenodd"  fill="url(#linear_fill_ew02qZxA5sTD5UtkkT7KY)" >
</path>
<path d="M39.1527 25.0913C28.4425 26.614 13.6421 23.6821 7.72331 20.623C5.8638 19.6675 4.59549 17.4677 6.70935 16.3403C3.83244 17.3714 4.05929 20.5405 8.28699 22.4L30.5564 32.1375L39.1527 25.0913Z" fill-rule="evenodd"  fill="url(#linear_fill_8-MBiYDxxdZkTmz_rEAGJ)" >
</path>
<path d="M30.5564 32.1375L8.28701 22.4103C4.0593 20.5508 3.8187 17.392 6.70935 16.3506C2.87691 17.1858 3.04533 21.3104 7.90548 23.4243L29.6249 32.8971L35.3203 35.4062C41.7202 38.1972 43.6072 40.2183 41.6343 42.7927C45.0164 40.043 42.0845 37.1523 35.6881 34.3613L30.5564 32.1375Z" fill-rule="evenodd"  fill="url(#linear_fill_INxSa95IhyIFoGiccxuck)" >
</path>
<path d="M31.2335 40.3661L24.2423 37.3242L18.5779 41.9334L27.1708 45.6833C30.1302 46.9792 32.8352 48.2784 31.5394 51.0384L36.3033 47.151C37.826 45.1746 37.6301 43.1467 31.2301 40.3557L31.2335 40.3661Z" fill-rule="evenodd"  fill="url(#linear_fill_8KgWAO4mVV43qc5xzk46E)" >
</path>
<path d="M24.2423 37.3242L31.2335 40.3661C37.6335 43.157 37.8294 45.1781 36.3068 47.1613L41.6344 42.7927C43.6073 40.2251 41.7203 38.1972 35.3203 35.4062L29.6249 32.8971L24.2423 37.3242Z" fill-rule="evenodd"  fill="url(#linear_fill_-Zw6C--d7v0HqZsUCOd_e)" >
</path>
<path d="M18.5779 41.9334L24.2423 37.3139L3.80494 28.415C1.29581 27.2876 0.0859291 25.5381 0 24.1014L0 29.0062C0 32.7287 0.477766 34.052 3.91837 35.5368L18.5779 41.9334Z" fill-rule="evenodd"  fill="url(#linear_fill_mX7IjceTdwengtkVrYkbv)" >
</path>
<path d="M27.1742 45.6937L18.5779 41.9334L7.66832 50.87C21.8191 45.9927 31.0067 47.0101 31.5429 51.0385C32.8387 48.2887 30.1336 46.9792 27.1742 45.6834L27.1742 45.6937Z" fill-rule="evenodd"  fill="url(#linear_fill_G1DxZ6JEOnRgGJTOuhkDw)" >
</path>
<path d="M332.266 65.9954C330.856 65.9954 329.999 67.6074 329.798 68.4134L325.365 79.8992L327.229 79.8992C328.639 79.8992 329.395 78.9924 330.05 77.2796L334.13 65.9954L332.266 65.9954Z"   fill="#FF1E46" >
</path>
<path d="M334.08 42.1167C334.13 41.9656 334.181 41.8145 334.231 41.6633C334.584 41.6633 334.936 41.6633 335.339 41.6633C336.045 41.6633 336.8 41.6633 337.506 41.6633C337.455 41.8648 337.405 42.016 337.354 42.2175C337.304 42.419 337.203 42.6709 337.153 42.8724L344.206 42.8724C344.306 42.4694 344.458 42.0663 344.558 41.6633C345.616 41.6633 346.724 41.6633 347.833 41.6633C347.782 41.9152 347.682 42.1671 347.631 42.3686C347.581 42.5197 347.53 42.7212 347.48 42.8724C348.387 42.8724 349.294 42.8724 350.201 42.8724L349.697 44.9378L346.976 44.9378C346.624 46.1972 346.321 47.4566 345.969 48.716C345.667 49.7739 345.415 50.8318 345.112 51.8898C346.271 51.8898 347.379 51.8898 348.538 51.8898C348.387 52.3935 348.286 52.8973 348.135 53.4515C348.085 53.6026 348.034 53.8041 347.984 53.9552C347.178 53.9552 346.422 53.9552 345.616 53.9552C344.81 53.9552 344.055 53.9552 343.249 53.9552C343.853 55.265 345.112 56.3229 347.077 57.1289C346.976 57.5319 346.876 57.9853 346.724 58.3883C346.674 58.5898 346.624 58.7913 346.573 59.0432C344.659 58.5394 343.198 57.9349 342.191 57.1793C342.14 57.4312 342.04 57.683 341.989 57.9349C341.939 58.0357 341.939 58.1868 341.888 58.2875C340.982 58.2875 340.125 58.2875 339.218 58.2875C338.765 58.2875 338.312 58.2875 337.858 58.2875C337.757 58.5898 337.707 58.8921 337.606 59.1943C337.506 59.4966 337.455 59.7989 337.354 60.1012C338.16 60.1012 339.017 60.1012 339.823 60.1012C341.485 60.1012 343.148 60.1012 344.81 60.1012C344.609 60.8065 344.407 61.5117 344.256 62.217C338.16 62.217 332.065 62.1666 325.969 62.1666C326.775 59.4966 329.143 59.6982 331.763 59.9501C332.518 60.0004 333.224 60.1012 333.979 60.1012C334.13 59.4966 334.332 58.9424 334.483 58.3379C333.828 58.3379 333.123 58.3379 332.468 58.3379C331.813 58.3379 331.158 58.3379 330.453 58.3379C330.503 58.086 330.604 57.8845 330.654 57.6327C330.705 57.4815 330.755 57.3304 330.806 57.1793C329.345 57.8845 327.581 58.489 325.365 58.9424C325.969 57.0785 327.33 56.4236 328.79 55.7184C329.748 55.265 330.755 54.7613 331.662 53.9552C330.1 53.9048 328.589 53.9048 327.027 53.8545C327.682 51.7386 328.337 51.789 330.151 51.8394C330.402 51.8394 330.705 51.8898 331.057 51.8898C331.813 49.5724 332.518 47.3055 333.274 44.9882C332.67 44.9882 332.115 44.9882 331.561 44.9882C331.259 44.9882 330.957 44.9882 330.705 44.9882C331.36 42.9731 331.662 42.9731 333.627 43.0235C333.727 43.0235 333.828 43.0235 333.979 43.0235C333.929 42.6205 333.979 42.3686 334.08 42.1167ZM336.498 44.9378C336.397 45.3408 336.246 45.6934 336.145 46.0965C338.513 46.0965 340.881 46.1468 343.299 46.1468C343.299 46.0461 343.349 45.9453 343.349 45.8949C343.45 45.5927 343.5 45.2904 343.601 44.9882C342.443 44.9882 341.234 44.9882 340.075 44.9882C338.866 44.9378 337.707 44.9378 336.498 44.9378ZM334.685 50.7815C334.584 51.1341 334.483 51.4867 334.382 51.8394C336.8 51.8394 339.218 51.8898 341.637 51.8898C341.637 51.8394 341.687 51.7386 341.687 51.6882L341.737 51.4867C341.838 51.2349 341.888 50.9326 341.989 50.6807C339.571 50.6807 337.153 50.6303 334.735 50.6303L334.685 50.7815ZM335.39 48.5649C335.491 48.2626 335.541 48.0108 335.642 47.7085C338.06 47.7085 340.427 47.7589 342.795 47.7589L342.745 47.8596C342.745 47.91 342.745 47.9604 342.694 48.0108L342.644 48.1619C342.543 48.4138 342.493 48.716 342.392 48.9679L335.239 48.9679C335.289 48.8168 335.339 48.716 335.39 48.5649ZM338.563 55.7184C338.513 55.9199 338.463 56.1214 338.412 56.3229C338.866 56.3229 339.319 56.3229 339.772 56.3229C340.226 56.3229 340.679 56.3229 341.133 56.3229C340.478 55.7184 339.924 54.9124 339.47 53.9048C338.765 53.9048 338.11 53.9048 337.405 53.9048C336.7 53.9048 336.045 53.9048 335.339 53.9048C334.332 54.862 333.274 55.668 332.266 56.3229C333.173 56.3229 334.08 56.3229 334.987 56.3229L335.037 56.3229C335.188 55.8191 335.339 55.265 335.491 54.7613C336.045 54.7613 336.599 54.7613 337.153 54.7613C337.707 54.7613 338.261 54.7613 338.815 54.7613C338.765 55.1139 338.664 55.4161 338.563 55.7184Z" fill-rule="evenodd"  fill="#FF1E46" >
</path>
<path d="M365.565 45.8447C365.565 44.0815 365.364 42.5702 364.961 41.2604C361.182 41.2604 362.643 42.4191 362.593 45.8447C363.601 45.8447 364.558 45.8447 365.565 45.8447Z"   fill="#FF1E46" >
</path>
<path d="M364.356 51.4867C364.356 49.7739 364.205 48.2122 363.802 46.8521C359.923 46.8521 361.384 47.9603 361.334 51.4867C362.392 51.4867 363.349 51.4867 364.356 51.4867Z"   fill="#FF1E46" >
</path>
<path d="M370.905 61.4614C371.661 58.2373 372.416 55.0636 373.122 51.8395C369.344 51.8395 368.991 57.2298 367.983 61.4614C368.941 61.4614 369.898 61.4614 370.905 61.4614Z"   fill="#FF1E46" >
</path>
<path d="M359.873 61.6124C361.586 59.0433 362.996 56.0207 364.104 52.5447C359.47 52.5447 359.117 57.9854 356.447 61.6124C357.556 61.6124 358.714 61.6124 359.873 61.6124Z"   fill="#FF1E46" >
</path>
<path d="M362.14 60.2019C361.989 60.8568 361.787 61.5117 361.636 62.2169C365.263 61.1087 367.328 58.8921 367.883 55.5672C368.185 54.3582 368.437 53.1492 368.739 51.9402C366.17 51.9402 365.767 52.5447 365.011 55.5672C364.709 56.7259 364.407 57.6328 364.004 58.2373C363.601 58.8418 362.996 59.4967 362.14 60.2019Z"   fill="#FF1E46" >
</path>
<path d="M372.971 58.9425C372.517 60.7562 373.122 61.6126 374.835 61.5118C375.238 61.5118 375.691 61.5118 376.094 61.5118C377.756 61.5622 378.764 60.7562 379.066 59.0433C379.167 58.5395 379.318 58.0358 379.419 57.532C378.764 57.532 378.159 57.532 377.504 57.532C377.404 57.8846 377.353 58.2373 377.253 58.5899C377.152 59.144 376.9 59.396 376.497 59.396C375.993 59.4464 375.792 59.1944 375.943 58.6403C376.447 56.3734 376.95 54.1065 377.454 51.8395C373.726 51.8395 373.877 55.0636 372.971 58.9425Z"   fill="#FF1E46" >
</path>
<path d="M375.993 42.5199C376.094 41.9658 376.195 41.462 376.296 40.9079C374.129 40.9079 372.87 40.3034 372.467 42.5199C369.344 42.5199 367.077 41.5124 366.321 44.7365L370.049 44.7365C369.142 45.9456 367.832 47.205 366.119 48.5148C365.918 49.2704 365.767 50.0261 365.565 50.7817C366.271 50.7817 367.026 50.7817 367.732 50.7817C369.595 50.7817 371.107 50.7313 372.366 50.681C373.676 50.6306 374.986 50.4794 376.396 50.2276C376.396 50.5802 376.447 50.8825 376.447 51.2351C377.505 51.2351 378.512 51.2351 379.57 51.2351C379.419 49.3712 378.965 47.608 378.311 46.0463C377.353 46.0463 376.447 46.0463 375.54 46.0463C375.792 46.802 375.993 47.5072 376.144 48.2125C374.28 48.4644 372.064 48.5651 369.545 48.5148C370.956 47.608 372.366 46.3486 373.676 44.7365C376.094 44.7365 378.562 44.7365 381.031 44.6861C381.132 43.9305 381.283 43.2252 381.383 42.4696L381.333 42.4696C379.57 42.5199 377.756 42.5199 375.993 42.5199Z"   fill="#FF1E46" >
</path>
<path d="M401.181 44.9379C403.045 45.2402 404.708 45.8447 406.219 46.7514C406.421 45.7439 406.622 44.7364 406.824 43.7289C404.002 42.3183 401.786 41.7642 401.181 44.9379Z"   fill="#FF1E46" >
</path>
<path d="M399.368 50.4291C401.232 50.7313 402.945 51.4366 404.456 52.5449C404.708 51.487 404.909 50.4291 405.161 49.3712C402.29 47.8095 400.023 47.1042 399.368 50.4291Z"   fill="#FF1E46" >
</path>
<path d="M408.788 54.3078C409.846 49.7739 410.854 45.24 411.861 40.7061C407.428 40.7061 407.932 43.0235 405.312 54.3078C401.887 54.3078 398.663 53.5522 397.857 56.6251C400.174 56.6251 402.491 56.6251 404.809 56.5747C404.355 58.4386 403.952 60.3027 403.499 62.1162C404.657 62.1162 405.766 62.1162 406.924 62.1162L406.975 62.1162C407.428 60.2523 407.882 58.3883 408.335 56.5747C409.141 56.5747 409.997 56.5747 410.803 56.5747C411.005 55.8191 411.156 55.0131 411.358 54.2575C410.451 54.3078 409.645 54.3078 408.788 54.3078Z"   fill="#FF1E46" >
</path>
<path d="M400.829 41.1597C399.267 41.5627 397.856 41.7642 396.496 41.7642C393.524 41.8146 391.811 40.9582 391.358 44.0312C392.315 44.0312 393.222 44.0312 394.179 44.0312C394.028 44.8876 393.877 45.744 393.726 46.6508C391.207 46.6508 390.753 46.3989 390.3 48.9177C391.257 48.9177 392.214 48.9177 393.172 48.8673C391.509 52.4441 388.839 54.9125 387.983 58.7412C389.746 57.2803 391.106 55.8697 392.164 54.5095C391.61 57.0284 391.005 59.5976 390.451 62.1668C391.509 62.1668 392.617 62.1668 393.675 62.1668C394.33 59.2953 394.985 56.4238 395.59 53.5523C396.043 54.5095 396.597 55.517 397.403 56.5246C397.655 55.4667 397.856 54.4592 398.108 53.4012C397.302 51.9907 396.799 50.429 396.597 48.817C397.453 48.817 398.36 48.817 399.217 48.817C399.368 48.0613 399.519 47.3057 399.67 46.6004C398.763 46.6004 397.907 46.6004 397.05 46.6004C397.202 45.744 397.353 44.8372 397.554 43.9808C398.411 43.9304 399.368 43.7793 400.476 43.5274C400.527 42.7214 400.678 41.9658 400.829 41.1597Z"   fill="#FF1E46" >
</path>
<path d="M428.687 43.3764C428.939 42.3688 429.14 41.4117 429.393 40.4545C426.218 40.5049 425.866 40.3538 425.16 43.4771C422.944 43.5275 422.944 43.6282 422.44 45.7944C423.195 45.7944 423.901 45.7944 424.656 45.7944C424.255 47.4569 423.851 49.1697 423.448 50.8321C421.03 51.1343 420.879 51.487 420.325 53.9051C421.13 53.8043 421.937 53.7036 422.793 53.5524C422.34 55.2652 421.937 56.978 421.483 58.7411C421.13 60.3028 419.468 60.0005 418.964 62.066C419.669 62.066 420.325 62.066 421.03 62.066C423.095 62.1164 424.355 61.0082 424.909 58.8923C425.463 56.8269 425.967 54.7615 426.521 52.6456C426.621 52.5952 426.723 52.5449 426.924 52.5449C427.679 52.293 428.234 52.0915 428.687 51.9404C428.889 51.1847 429.09 50.3787 429.292 49.623C428.536 49.8245 428.032 49.9757 427.781 50.0261C427.528 50.1268 427.327 50.1268 427.227 50.1772C427.579 48.7163 427.932 47.2553 428.285 45.7944C428.889 45.7944 429.493 45.7944 430.097 45.744C430.3 44.9884 430.45 44.2327 430.651 43.4771C429.896 43.3764 429.292 43.3764 428.687 43.3764Z"   fill="#FF1E46" >
</path>
<path d="M440.122 42.6711C440.324 41.8147 440.576 41.0086 440.778 40.1522C437.755 40.2026 437.049 39.7996 436.243 42.7214C433.17 42.7718 431.508 41.9658 430.753 45.0891C432.365 45.0891 434.027 45.0388 435.639 45.0388C435.387 46.0463 435.135 47.0034 434.884 48.011C431.861 48.0614 430.35 47.3057 429.594 50.3787C432.768 50.3283 435.992 50.3283 439.215 50.2779C437.856 52.3433 436.445 54.0057 434.934 55.2652C434.178 54.1568 433.624 52.7967 433.272 51.2351L433.22 51.2351C432.012 51.2351 430.753 51.2351 429.543 51.2854C429.947 53.7538 430.753 55.7689 431.962 57.3306C429.14 58.9426 426.27 58.9426 425.463 62.1668C428.839 61.2599 431.609 60.2524 433.826 59.0937C435.387 60.3027 437.503 61.2599 440.274 62.0156C440.475 61.2599 440.676 60.5546 440.929 59.799C439.165 58.993 437.806 58.187 436.798 57.3306C439.115 55.6682 441.18 53.3004 442.994 50.2275C443.195 49.4719 443.448 48.6659 443.648 47.9102L443.598 47.9102C441.986 47.9102 440.324 47.9606 438.711 47.9606C438.964 46.9531 439.215 45.9959 439.518 44.9884C441.382 44.9884 443.245 44.938 445.109 44.938C445.312 44.1824 445.513 43.3763 445.714 42.6207C443.851 42.6207 441.986 42.6711 440.122 42.6711Z"   fill="#FF1E46" >
</path>
<path d="M291.814 70.6299C287.683 67.5066 285.013 62.5697 285.013 57.0283C284.963 47.6079 292.62 40.0011 301.99 40.0011C306.877 40.0011 313.678 39.8499 316.75 43.1244C319.622 46.147 318.967 52.4944 318.967 56.9779C318.967 66.348 311.36 74.0052 301.94 74.0052C298.162 74.0052 294.635 72.7458 291.814 70.6299L299.572 70.6299C301.839 70.6299 302.544 69.3705 303.753 66.4991L310.957 48.4643L303.753 48.4643C301.285 48.4643 300.126 50.3282 299.421 52.3937L291.814 70.6299Z" fill-rule="evenodd"  fill="#FF1E46" >
</path>
<path d="M285.265 59.95C286.625 51.9905 293.628 45.8949 301.99 45.8949C305.265 45.8949 308.338 46.8017 310.907 48.4137L303.753 48.4137C301.285 48.4137 300.126 50.2777 299.421 52.3431L291.814 70.6299C288.439 68.0606 286.021 64.2824 285.265 59.95ZM291.814 70.6299C288.439 68.111 286.021 64.3328 285.265 59.95C285.114 60.9071 285.013 61.9148 285.013 62.9223C285.013 67.5064 284.661 73.7028 287.583 76.7757C290.605 79.8991 297.003 79.8991 301.789 79.8991C306.373 79.8991 310.806 78.1863 314.03 74.9118C317.103 71.8389 319.017 67.6072 319.017 62.9223C319.017 61.9148 318.917 60.9071 318.766 59.95C317.355 67.9598 310.353 74.005 301.99 74.005C298.162 74.005 294.635 72.7456 291.814 70.6299Z" fill-rule="evenodd"  fill="#BF2B46" >
</path>
<path d="M343.349 71.7382C343.148 71.3856 342.845 71.0833 342.442 70.8314C342.039 70.6299 341.586 70.5292 341.032 70.5292C340.528 70.5292 339.974 70.6299 339.47 70.8314C338.463 71.1841 338.211 71.0329 337.858 70.9322C337.657 70.8314 337.405 70.7307 336.851 70.7307C335.541 73.8036 334.433 76.8766 333.475 79.8992L335.843 79.8992C336.397 78.136 337.002 76.4233 337.606 74.6601C337.707 74.4082 337.808 74.2066 338.009 74.0051C338.211 73.8036 338.362 73.6021 338.614 73.451C338.866 73.2999 339.067 73.1487 339.319 73.048C339.571 72.9472 339.823 72.8968 340.075 72.8968C340.327 72.8968 340.528 72.9472 340.679 73.048C340.83 73.1487 340.982 73.2495 341.082 73.4006C341.183 73.5517 341.233 73.7532 341.233 73.9547C341.233 74.1562 341.183 74.4082 341.133 74.6601C340.528 76.4233 339.924 78.136 339.369 79.8992C339.772 79.8992 340.125 79.8992 340.528 79.8992C340.931 79.8992 341.284 79.8992 341.687 79.8992C342.241 78.136 342.845 76.4233 343.45 74.6601C343.652 74.1059 343.752 73.5517 343.702 73.048C343.702 72.5946 343.601 72.1412 343.349 71.7382Z"   fill="#FF1E46" >
</path>
<path d="M354.331 71.6877C354.432 71.3854 354.533 71.0328 354.634 70.7306C353.727 70.7306 352.82 70.7306 351.913 70.7306C351.964 70.6298 351.964 70.5291 352.014 70.4283C352.014 70.3779 352.064 70.3276 352.064 70.2772C352.165 70.0253 352.266 69.7734 352.417 69.5719C352.568 69.3703 352.77 69.1688 352.921 69.0177C353.122 68.8665 353.324 68.7154 353.576 68.665C353.828 68.5643 354.029 68.5139 354.281 68.5139L355.893 68.5139C356.145 67.7583 356.346 66.9523 356.598 66.1966L354.986 66.1966C354.482 66.1966 353.928 66.2974 353.424 66.4989C352.921 66.7004 352.417 67.0026 351.913 67.3553C351.46 67.7079 351.006 68.1613 350.654 68.665C350.301 69.1688 349.999 69.6727 349.797 70.2772C349.747 70.4283 349.697 70.5794 349.646 70.7306C349.445 70.7306 349.294 70.7306 349.092 70.7306C348.891 70.7306 348.74 70.7306 348.538 70.7306C348.236 71.4862 347.984 72.2922 347.732 73.0478L348.84 73.0478C348.085 75.3147 347.329 77.6321 346.573 79.8991C347.329 79.8991 348.135 79.8991 348.891 79.8991C349.596 77.6321 350.301 75.3147 351.057 73.0478L353.828 73.0478C354.029 72.5945 354.18 72.1411 354.331 71.6877Z"   fill="#FF1E46" >
</path>
<path d="M364.457 70.7812C364.155 70.7812 363.802 70.7812 363.5 70.7812C363.198 70.7812 362.845 70.7812 362.543 70.7812C362.039 70.7812 361.586 70.8819 361.031 71.0834C359.974 71.4361 359.822 71.285 359.57 71.0834C359.419 70.9323 359.218 70.7812 358.664 70.7812C357.757 73.8541 356.8 76.927 355.893 79.9497C356.296 79.9497 356.649 79.9497 357.052 79.9497C357.455 79.9497 357.807 79.9497 358.21 79.9497C358.714 78.2369 359.167 76.5744 359.671 74.8616C359.722 74.6097 359.873 74.4082 360.024 74.1564C360.175 73.9549 360.326 73.7533 360.528 73.6022C360.729 73.4511 360.931 73.3 361.183 73.2496C361.434 73.1488 361.636 73.0985 361.888 73.0985C362.24 73.0985 362.543 73.0985 362.895 73.0985C363.248 73.0985 363.55 73.0985 363.903 73.0985C364.054 72.2925 364.255 71.5368 364.457 70.7812Z"   fill="#FF1E46" >
</path>
<path d="M374.431 71.0833C374.23 70.9322 374.028 70.7307 373.777 70.6299C373.525 70.4788 373.273 70.3781 373.021 70.3277C372.769 70.2773 372.517 70.2269 372.215 70.2269C371.61 70.2269 371.006 70.3277 370.401 70.5796C369.797 70.8314 369.243 71.1337 368.739 71.5871C368.235 72.0405 367.782 72.5442 367.379 73.1487C366.976 73.7532 366.673 74.4081 366.522 75.1134C366.321 75.8691 366.27 76.5744 366.321 77.1789C366.422 77.7834 366.573 78.2872 366.875 78.6902C367.177 79.0932 367.58 79.3954 368.084 79.6473C368.588 79.8488 369.192 79.9496 369.797 79.9999C370.099 79.9999 370.401 79.9496 370.704 79.8992C371.006 79.7984 371.308 79.6977 371.61 79.5969C371.913 79.4458 372.215 79.2947 372.517 79.1435C373.273 78.6902 373.424 78.942 373.676 79.2947C373.827 79.5466 374.028 79.8488 374.532 79.8488C375.237 76.7759 375.943 73.7029 376.547 70.6803C376.144 70.6803 375.892 70.9322 375.64 71.1337C375.288 71.3352 374.986 71.5871 374.431 71.0833ZM373.323 75.063C373.222 75.3652 373.122 75.718 372.92 76.0203C372.719 76.3225 372.517 76.5744 372.265 76.8263C372.013 77.0781 371.711 77.2293 371.409 77.3804C371.107 77.5315 370.804 77.5819 370.452 77.5819C370.15 77.5819 369.847 77.5315 369.595 77.4308C369.343 77.33 369.142 77.1789 368.991 76.9774C368.84 76.7759 368.739 76.524 368.739 76.2218C368.688 75.9195 368.739 75.5669 368.84 75.1637C368.94 74.7607 369.091 74.4081 369.293 74.1059C369.495 73.8036 369.696 73.5517 369.948 73.2998C370.2 73.0983 370.502 72.9472 370.754 72.7961C371.056 72.6953 371.359 72.645 371.661 72.645C371.963 72.645 372.265 72.6953 372.467 72.8465C372.719 72.9976 372.92 73.1487 373.071 73.4006C373.222 73.6525 373.323 73.9044 373.374 74.2066C373.424 74.4585 373.424 74.7607 373.323 75.063Z"   fill="#FF1E46" >
</path>
<path d="M390.502 70.5796C390.149 72.5442 389.796 74.4586 389.393 76.4233C389.343 76.5744 389.293 76.7255 389.192 76.8766C389.091 77.0278 388.99 77.1285 388.839 77.2293C388.688 77.33 388.587 77.4308 388.386 77.4812C388.235 77.5315 388.084 77.5819 387.882 77.5819C387.731 77.5819 387.58 77.5315 387.429 77.4812C387.328 77.4308 387.177 77.33 387.126 77.2293C387.026 77.1285 386.975 76.9774 386.975 76.8766C386.925 76.7255 386.925 76.5744 386.975 76.4233C387.378 74.4586 387.731 72.5442 388.084 70.5796C387.328 70.5796 386.522 70.5796 385.766 70.5796C385.414 72.5442 385.061 74.4586 384.658 76.4233C384.608 76.5744 384.557 76.7255 384.456 76.8766C384.356 77.0278 384.255 77.1285 384.104 77.2293C383.953 77.33 383.852 77.4308 383.65 77.4812C383.499 77.5315 383.348 77.5819 383.197 77.5819C383.046 77.5819 382.895 77.5315 382.744 77.4812C382.643 77.4308 382.542 77.33 382.441 77.2293C382.341 77.1285 382.29 76.9774 382.29 76.8766C382.24 76.7255 382.29 76.5744 382.29 76.4233C382.693 74.4586 383.046 72.4938 383.449 70.5796C382.693 70.5796 381.938 70.5796 381.182 70.5796C380.779 72.5442 380.376 74.4586 379.973 76.4233C379.872 76.927 379.872 77.3804 379.922 77.7834C380.023 78.1864 380.174 78.5894 380.426 78.8917C380.678 79.1939 380.98 79.4458 381.384 79.6473C381.736 79.8488 382.19 79.8992 382.693 79.8992C383.147 79.8992 383.55 79.8488 384.003 79.6977C384.456 79.5466 384.859 79.2947 385.262 79.0428C385.514 79.3451 385.817 79.5466 386.22 79.6977C386.572 79.8488 386.975 79.8992 387.429 79.8992C387.932 79.8992 388.386 79.7984 388.89 79.5969C389.343 79.3954 389.796 79.1436 390.199 78.8413C390.602 78.539 390.955 78.136 391.207 77.733C391.509 77.2797 391.711 76.8263 391.811 76.3729C392.214 74.4082 392.617 72.4435 392.97 70.5292C392.567 70.5292 392.164 70.5292 391.761 70.5292C391.308 70.5292 390.905 70.5796 390.502 70.5796Z"   fill="#FF1E46" >
</path>
<path d="M439.317 73.0984C439.468 72.9976 439.669 72.8968 439.821 72.9472C443.448 72.9472 444.002 74.0051 445.714 70.5796C444.152 70.5292 442.54 70.5292 440.878 70.5292C440.475 70.5292 440.022 70.6299 439.568 70.7811C439.115 70.9322 438.711 71.1337 438.309 71.436C437.906 71.6878 437.553 72.0405 437.252 72.3931C436.949 72.7457 436.696 73.1487 436.546 73.5517C436.395 73.9547 436.294 74.3577 436.294 74.7105C436.294 75.0631 436.395 75.4158 436.546 75.6676C436.696 75.9195 436.949 76.1714 437.252 76.3225C437.553 76.4736 437.906 76.5744 438.309 76.5744C438.561 76.5744 438.863 76.5744 439.115 76.5744C439.669 76.5744 440.223 76.5744 440.728 76.5744C440.878 76.5744 441.029 76.6248 441.079 76.6751C441.18 76.7255 441.18 76.8263 441.13 77.0278C441.079 77.1789 440.979 77.33 440.778 77.4308C440.626 77.5315 440.475 77.5819 440.274 77.5819C436.899 77.5819 435.237 76.6248 433.926 79.9496C435.135 79.9496 436.345 79.9496 437.503 79.9496C438.107 79.9496 438.711 79.9496 439.267 79.9496C439.669 79.9496 440.072 79.8488 440.475 79.7481C440.878 79.5969 441.282 79.3954 441.633 79.0932C441.986 78.8413 442.34 78.4887 442.591 78.136C442.894 77.7834 443.095 77.3804 443.247 76.9774C443.397 76.5744 443.498 76.2218 443.498 75.8691C443.498 75.5165 443.397 75.2142 443.247 74.9624C443.095 74.7105 442.894 74.509 442.591 74.3577C442.289 74.2066 441.936 74.1562 441.583 74.1562C440.778 74.1562 439.971 74.1562 439.115 74.1562C438.964 74.1562 438.863 74.1059 438.763 73.9547C438.711 73.854 438.711 73.7029 438.763 73.5014C439.014 73.3502 439.165 73.1991 439.317 73.0984Z"   fill="#FF1E46" >
</path>
<path d="M426.521 77.5314C426.42 77.5314 426.32 77.5314 426.218 77.5314C426.118 77.5314 426.067 77.481 425.967 77.481C428.133 75.6675 430.4 73.854 432.616 72.0405C432.516 71.7381 432.365 71.4358 432.163 71.1839C431.962 70.9321 431.709 70.6802 431.458 70.5291C431.155 70.3779 430.854 70.2268 430.501 70.1261C430.148 70.0253 429.746 69.9749 429.342 69.9749C428.636 69.9749 427.932 70.1261 427.226 70.3276C426.521 70.5794 425.866 70.9321 425.262 71.3351C424.657 71.7885 424.103 72.2923 423.649 72.8968C423.195 73.5014 422.844 74.2066 422.541 74.9119C422.29 75.6171 422.188 76.272 422.24 76.8765C422.29 77.481 422.44 77.9848 422.743 78.4382C423.045 78.8915 423.398 79.1938 423.902 79.4458C424.405 79.6977 424.959 79.7984 425.614 79.7984C426.017 79.7984 426.42 79.7481 426.773 79.6473C427.175 79.5466 427.579 79.3953 427.982 79.2442C428.385 79.093 428.788 78.8412 429.14 78.5893C429.543 78.3374 429.896 78.0352 430.249 77.7329C429.09 75.9194 428.435 77.481 426.521 77.5314ZM424.859 76.2216C424.859 76.1209 424.859 76.0705 424.859 75.9194L424.859 75.869L424.859 75.8186C424.859 75.7179 424.859 75.6675 424.909 75.5668C424.959 75.466 424.959 75.3149 425.01 75.2141C425.01 75.1637 425.01 75.1637 425.06 75.1134C425.11 75.0126 425.11 74.9622 425.11 74.9119C425.262 74.5089 425.463 74.1562 425.664 73.854C425.917 73.5517 426.168 73.2495 426.471 73.048C426.773 72.8465 427.125 72.645 427.428 72.5442C427.781 72.4435 428.133 72.3427 428.486 72.3427C428.586 72.3427 428.737 72.3427 428.839 72.3427C428.939 72.3427 429.04 72.3931 429.14 72.4435C427.679 73.7532 426.27 74.9622 424.859 76.2216Z"   fill="#FF1E46" >
</path>
<path d="M418.108 70.5796C418.108 70.5796 415.438 74.4586 414.128 76.4233C414.027 74.509 413.877 72.5442 413.725 70.6299C412.768 70.6299 411.811 70.6299 410.854 70.6803C411.206 73.7532 411.559 76.8766 411.811 79.9496C412.063 79.9496 412.365 79.9496 412.617 79.9496C413.171 79.9496 413.675 79.9496 414.228 79.9496C416.446 76.8263 418.712 73.703 420.979 70.5796C420.022 70.5292 418.108 70.5796 418.108 70.5796Z"   fill="#FF1E46" >
</path>
<path d="M404.758 70.9827C404.557 70.8316 404.305 70.6301 404.002 70.5293C403.751 70.3782 403.448 70.2774 403.146 70.2271C402.844 70.1767 402.542 70.1263 402.239 70.1263C401.534 70.1263 400.879 70.2774 400.224 70.4789C399.569 70.7308 398.965 71.0331 398.461 71.4865C397.907 71.9398 397.454 72.4436 397.101 73.0481C396.748 73.6526 396.446 74.3075 396.295 75.0127C396.144 75.7684 396.094 76.4736 396.194 77.0781C396.295 77.6828 396.497 78.1865 396.849 78.5895C397.202 78.9926 397.605 79.3452 398.109 79.5467C398.612 79.7482 399.217 79.8993 399.872 79.8993C400.174 79.8993 400.476 79.8489 400.778 79.7986C401.081 79.6978 401.433 79.5971 401.736 79.4963C402.038 79.3452 402.34 79.1941 402.642 79.0429C403.398 78.5895 403.599 78.8918 403.801 79.1941C403.952 79.4459 404.154 79.7482 404.657 79.7482C405.514 76.6751 406.37 73.5519 407.176 70.4789C406.723 70.4789 406.421 70.7308 406.118 70.9323C405.766 71.2346 405.413 71.4865 404.758 70.9827ZM403.599 75.0127C403.499 75.315 403.348 75.6676 403.146 75.9699C402.945 76.2721 402.693 76.524 402.441 76.7759C402.139 77.0278 401.836 77.1789 401.534 77.3302C401.232 77.4813 400.879 77.5317 400.577 77.5317C400.224 77.5317 399.972 77.4813 399.67 77.3805C399.418 77.2798 399.217 77.1285 399.015 76.8766C398.864 76.6751 398.763 76.4233 398.713 76.0706C398.663 75.7684 398.663 75.4158 398.763 75.0127C398.864 74.6097 399.015 74.2571 399.166 73.9549C399.368 73.6526 399.569 73.3503 399.872 73.1488C400.124 72.9473 400.426 72.7458 400.728 72.6451C401.03 72.5443 401.383 72.494 401.736 72.494C402.088 72.494 402.391 72.5443 402.642 72.6955C402.894 72.8466 403.146 72.9977 403.297 73.2496C403.448 73.5015 403.549 73.7534 403.599 74.0556C403.65 74.4082 403.65 74.7105 403.599 75.0127Z"   fill="#FF1E46" >
</path>
<path    stroke="rgba(0, 63, 155, 1)" stroke-width="1.2"    d="M265 44L265 76">
</path>
<defs>
<linearGradient id="linear_fill_1mTjfpvkY4HbpZV0UH340" x1="-0.6152496337890625" y1="60.97186279296875" x2="37.241668701171875" y2="60.97186279296875" gradientUnits="userSpaceOnUse">
<stop offset="0" stop-color="#753EBA"  />
<stop offset="0.34" stop-color="#259ABA"  />
<stop offset="0.69" stop-color="#5EE4C6"  />
<stop offset="0.99" stop-color="#FFFFD2"  />
</linearGradient>
<linearGradient id="linear_fill_cWBqLKxIu4es0r_4soDX4" x1="-4.7089080810546875" y1="33.701385498046875" x2="51.92524719238281" y2="33.701385498046875" gradientUnits="userSpaceOnUse">
<stop offset="0" stop-color="#753EBA"  />
<stop offset="0.34" stop-color="#259ABA"  />
<stop offset="0.69" stop-color="#5EE4C6"  />
<stop offset="0.99" stop-color="#FFFFD2"  />
</linearGradient>
<linearGradient id="linear_fill_i4P1I9WIC84Fb23GOZhU5" x1="-3.15875244140625" y1="21.382598876953125" x2="54.496246337890625" y2="21.382598876953125" gradientUnits="userSpaceOnUse">
<stop offset="0" stop-color="#008A45"  />
<stop offset="0.5" stop-color="#74B810"  />
<stop offset="1" stop-color="#F4FF77"  />
</linearGradient>
<linearGradient id="linear_fill_X2sVfNUozUlC3U0fW1mK3" x1="24.087646484375" y1="8.07733154296875" x2="53.71257019042969" y2="8.07733154296875" gradientUnits="userSpaceOnUse">
<stop offset="0" stop-color="#008A45"  />
<stop offset="0.5" stop-color="#74B810"  />
<stop offset="1" stop-color="#F4FF77"  />
</linearGradient>
<linearGradient id="linear_fill_NpRrglBADYLhiZu9e79yg" x1="-3.15875244140625" y1="13.944580078125" x2="46.74200439453125" y2="13.944580078125" gradientUnits="userSpaceOnUse">
<stop offset="0" stop-color="#008A45"  />
<stop offset="0.5" stop-color="#74B810"  />
<stop offset="1" stop-color="#F4FF77"  />
</linearGradient>
<linearGradient id="linear_fill_ew02qZxA5sTD5UtkkT7KY" x1="21.513214111328125" y1="13.023422241210938" x2="51.13813781738281" y2="13.023422241210938" gradientUnits="userSpaceOnUse">
<stop offset="0" stop-color="#008A45"  />
<stop offset="0.5" stop-color="#74B810"  />
<stop offset="1" stop-color="#F4FF77"  />
</linearGradient>
<linearGradient id="linear_fill_8-MBiYDxxdZkTmz_rEAGJ" x1="5.5819549560546875" y1="24.242324829101562" x2="56.699462890625" y2="24.242324829101562" gradientUnits="userSpaceOnUse">
<stop offset="0" stop-color="#008A45"  />
<stop offset="0.5" stop-color="#74B810"  />
<stop offset="1" stop-color="#F4FF77"  />
</linearGradient>
<linearGradient id="linear_fill_INxSa95IhyIFoGiccxuck" x1="-4.7089080810546875" y1="29.569915771484375" x2="45.41181945800781" y2="29.569915771484375" gradientUnits="userSpaceOnUse">
<stop offset="0" stop-color="#753EBA"  />
<stop offset="0.34" stop-color="#259ABA"  />
<stop offset="0.69" stop-color="#5EE4C6"  />
<stop offset="0.99" stop-color="#FFFFD2"  />
</linearGradient>
<linearGradient id="linear_fill_8KgWAO4mVV43qc5xzk46E" x1="10.22900390625" y1="44.18473815917969" x2="50.39227294921875" y2="44.18473815917969" gradientUnits="userSpaceOnUse">
<stop offset="0" stop-color="#753EBA"  />
<stop offset="0.34" stop-color="#259ABA"  />
<stop offset="0.69" stop-color="#5EE4C6"  />
<stop offset="0.99" stop-color="#FFFFD2"  />
</linearGradient>
<linearGradient id="linear_fill_-Zw6C--d7v0HqZsUCOd_e" x1="10.22900390625" y1="40.02922058105469" x2="47.18196105957031" y2="40.02922058105469" gradientUnits="userSpaceOnUse">
<stop offset="0" stop-color="#753EBA"  />
<stop offset="0.34" stop-color="#259ABA"  />
<stop offset="0.69" stop-color="#5EE4C6"  />
<stop offset="0.99" stop-color="#FFFFD2"  />
</linearGradient>
<linearGradient id="linear_fill_mX7IjceTdwengtkVrYkbv" x1="-4.7089080810546875" y1="33.02427673339844" x2="56.476043701171875" y2="33.02427673339844" gradientUnits="userSpaceOnUse">
<stop offset="0" stop-color="#753EBA"  />
<stop offset="0.34" stop-color="#259ABA"  />
<stop offset="0.69" stop-color="#5EE4C6"  />
<stop offset="0.99" stop-color="#FFFFD2"  />
</linearGradient>
<linearGradient id="linear_fill_G1DxZ6JEOnRgGJTOuhkDw" x1="-6.1456451416015625" y1="46.49797058105469" x2="31.707855224609375" y2="46.49797058105469" gradientUnits="userSpaceOnUse">
<stop offset="0" stop-color="#753EBA"  />
<stop offset="0.34" stop-color="#259ABA"  />
<stop offset="0.69" stop-color="#5EE4C6"  />
<stop offset="0.99" stop-color="#FFFFD2"  />
</linearGradient>
</defs>
</svg>
